<?xml version="1.0" standalone="no"?>
<!DOCTYPE svg PUBLIC "-//W3C//DTD SVG 1.1//EN" "http://www.w3.org/Graphics/SVG/1.1/DTD/svg11.dtd" >
<svg xmlns="http://www.w3.org/2000/svg">
<metadata>
Created by FontForge 20120731 at Wed Mar 15 09:07:59 2017
 By admin
</metadata>
<defs>
<font id="iconfont" horiz-adv-x="1024" >
  <font-face 
    font-family="iconfont"
    font-weight="500"
    font-stretch="normal"
    units-per-em="1024"
    panose-1="2 0 6 3 0 0 0 0 0 0"
    ascent="896"
    descent="-128"
    x-height="792"
    bbox="-53 -224 1283 896.286"
    underline-thickness="0"
    underline-position="0"
    unicode-range="U+0078-E6C2"
  />
<missing-glyph 
 />
    <glyph glyph-name=".notdef" 
 />
    <glyph glyph-name=".notdef" 
 />
    <glyph glyph-name=".null" horiz-adv-x="0" 
 />
    <glyph glyph-name="nonmarkingreturn" horiz-adv-x="341" 
 />
    <glyph glyph-name="glyph3" unicode="x" horiz-adv-x="1001" 
d="M281 543q-27 -1 -53 -1h-83q-18 0 -36.5 -6t-32.5 -18.5t-23 -32t-9 -45.5v-76h912v41q0 16 -0.5 30t-0.5 18q0 13 -5 29t-17 29.5t-31.5 22.5t-49.5 9h-133v-97h-438v97zM955 310v-52q0 -23 0.5 -52t0.5 -58t-10.5 -47.5t-26 -30t-33 -16t-31.5 -4.5q-14 -1 -29.5 -0.5
t-29.5 0.5h-32l-45 128h-439l-44 -128h-29h-34q-20 0 -45 1q-25 0 -41 9.5t-25.5 23t-13.5 29.5t-4 30v167h911zM163 247q-12 0 -21 -8.5t-9 -21.5t9 -21.5t21 -8.5q13 0 22 8.5t9 21.5t-9 21.5t-22 8.5zM316 123q-8 -26 -14 -48q-5 -19 -10.5 -37t-7.5 -25t-3 -15t1 -14.5
t9.5 -10.5t21.5 -4h37h67h81h80h64h36q23 0 34 12t2 38q-5 13 -9.5 30.5t-9.5 34.5q-5 19 -11 39h-368zM336 498v228q0 11 2.5 23t10 21.5t20.5 15.5t34 6h188q31 0 51.5 -14.5t20.5 -52.5v-227h-327z" />
    <glyph glyph-name="dianhua" unicode="&#xe604;" horiz-adv-x="1000" 
d="M680 192v0l1 -4v-3l1 -3v-3l1 -2v-4l1 -2v-3v-3l1 -2v-3v-3v-2v-2v-3v-2v-2v-3v-2v-2l-1 -2v-2v-2l-1 -2v-2l-1 -2v-2l-1 -2l-1 -1v-2l-1 -2l-1 -2l-1 -2v-1l-1 -2l-2 -2l-1 -1l-1 -2l-1 -2l-1 -1l-2 -2l-1 -2l-2 -1l-1 -2l-2 -1l-1 -2l-2 -1l-2 -2l-2 -2l-1 -1l-2 -2
l-3 -1l-2 -2l-2 -1l-2 -2l-2 -1l-3 -2l-2 -2l-3 -1l-2 -2l-3 -2l-3 -1l-2 -2l-3 -2v0h-4l-4 -1h-3h-4l-3 -1h-3h-4h-3l-3 -1h-3h-3h-3h-3h-3h-2h-3h-3l-2 1h-3h-2h-3l-2 1h-2h-3l-2 1h-2l-2 1l-2 1h-2l-2 1l-2 1h-2l-2 1l-2 1l-2 1l-2 1l-1 1l-2 1l-2 2l-2 1l-1 1l-2 1l-2 2
l-2 1l-1 2l-2 1l-1 2l-2 2l-2 2l-1 2l-2 1l-1 2l-2 2l-2 2l-1 3l-2 2l-1 2l-2 3l-1 2l-2 2l-2 3l-1 3l-2 3l-2 2l-3 14v0l-1 3v3l-1 2v3l-1 2v3v2l-1 3v2v3l1 2v3v2l1 2v3v2l1 2v2l1 3l1 2v2l1 2l1 2l1 2l1 2l1 2l1 2l1 2l1 2l1 2l2 2l1 1l1 2l2 2l1 1l2 2l1 2l2 1l2 2l1 1
l2 2l1 1l2 2l2 1l2 1l2 2l2 1l2 1l2 1l2 1l2 2l2 1l2 1h2l2 1l2 1l2 1l2 1l3 1l2 1h2l2 1l3 1h2l2 1l3 1h2h2l3 1h2h2l3 1h2h3h2h3h2h2h2h3h2h3h2l2 -1h3h2l3 -1h2l2 -1h3l2 -1l2 -1h3l2 -1l2 -1h2l2 -1l2 -1l3 -1l2 -2h2l2 -2l2 -1l2 -1l2 -1l2 -2l2 -1l2 -2l2 -1l2 -2
l1 -1l2 -2l2 -1l2 -2l1 -2l2 -2l1 -2l2 -2l2 -2l1 -2l1 -2l2 -2l1 -2l1 -3l2 -2l1 -3l1 -2l1 -2v0zM592 304v0h-2h-2h-2h-2h-2h-2h-3h-2h-2h-2h-2h-2h-2h-2h-2l-2 -1h-1h-2h-2l-2 -1h-2h-2l-2 -1h-2h-1l-2 -1h-2h-2l-2 -1h-1l-2 -1h-1l-2 -1h-2l-2 -1h-1l-2 -1h-2l-1 -1
l-2 -1h-1l-2 -1l-2 -1h-1l-3 -2l-4 -1l-2 -2l-3 -1l-3 -2l-3 -2l-3 -1l-3 -2l-3 -2l-2 -2v0l-2 -1l-2 -1l-1 -2h-2l-1 -2l-2 -1l-1 -1l-1 -1l-2 -1l-1 -2l-1 -1l-2 -1l-1 -1l-2 -2l-1 -1l-1 -1l-1 -1l-1 -2l-2 -1l-1 -1l-1 -1l-1 -2l-1 -1l-1 -1l-1 -2l-2 -1l-1 -1l-1 -2
l-1 -1l-1 -2l-1 -1v-1l-1 -2l-2 -1v-2l-1 -1l-1 -2l-1 -1l-1 -1v-2l-1 -1l-1 -1v-2l-1 -2l-1 -1l-1 -1v-2l-1 -1v-1l-1 -2v-2l-1 -1v-1l-1 -2v-1v-2l-1 -1v-2v-1l-1 -1v-2l-1 -1v-1v-2v0l-1 -4v-4l-1 -4v-4l-1 -3v-3v-4l-1 -3v-3v-3v-3v-3v-2v-3v-3l1 -2v-3l1 -3v-3l1 -2v-3
l1 -3l1 -3l1 -3l1 -3l1 -3l2 -4l1 -3l1 -4l2 -4l2 -4l2 -4l8 -12v0l5 -4l6 -5l5 -3l6 -4l5 -4l5 -3l5 -4l3 -1l2 -2l3 -2l2 -1l3 -1l2 -2l3 -2l2 -1l2 -1l3 -2l2 -1l2 -1l3 -1l2 -2l2 -1l3 -1l2 -1l2 -1l2 -1l3 -1l2 -1l2 -1l2 -1h3l2 -1l2 -1l2 -1h3l2 -1l2 -1h2l2 -1h2
l2 -1h2l2 -1h2h2h3l2 -1h2h2h2h2l2 -1h2h2h2l2 1h2h2h2h2h2l2 1h2h2l2 1h2h2l2 1l2 1h2l2 1l2 1h2l2 1l2 1h2l2 1l2 1l2 1l2 1l2 1l2 1l2 1l2 1l2 1l3 1l2 2l2 1l2 1l2 1l2 2l2 1l2 1l2 2l2 2l2 1l2 2l3 1l2 2l2 1l2 2l2 2l2 2l2 2l3 1l2 2l2 2l2 2l3 2l4 4l5 5l4 4l5 5l5 4
l5 5l5 13v0l1 5l1 6v5v5l1 6v5v5v5v4v5v4v5v4v4v2v2l-1 2v2v3v1l-1 2v2v2l-1 2v2v2l-1 2v1l-1 2v2l-1 1v2l-1 2v1l-1 2l-1 1v2l-1 2v1l-1 2l-1 2l-1 1l-1 1v2l-1 2l-1 1l-1 1l-1 2l-1 1l-1 1v2l-2 1l-1 1l-1 2l-1 1l-1 2l-1 1l-1 1l-2 1l-1 2l-1 1l-1 1l-2 1l-1 2l-1 1l-2 1
l-1 1l-2 1l-1 1l-1 2l-2 1l-2 1l-1 1l-2 1l-2 1l-2 1l-1 2h-2l-2 2l-1 1l-3 1l-1 1l-2 1l-2 1l-2 1l-2 1l-4 2l-5 2l-4 2l-5 2l-5 2l-4 2l-5 2l-6 2l-5 2l-5 2l-6 2l-6 3l-6 1l-6 3v0zM153 232v0l-3 -1h-2l-2 -1h-2l-2 -1l-2 -1h-2l-2 -1l-2 -1l-1 -1h-2l-2 -1l-1 -1l-2 -1
l-1 -1l-2 -1l-1 -1l-1 -2l-2 -1l-1 -1l-1 -1l-2 -2l-1 -1l-1 -1l-1 -2l-1 -1l-1 -2l-1 -1l-2 -2l-1 -1l-1 -2l-1 -2v0l5 -1l5 -1l2 -1h3l2 -1h2l3 -1h2h3h2h3h1h1h1h2h1h1h1h1h1h1h2h1h1l1 1h1h1l1 1h1l1 1h1l1 1h1l1 1h1l1 1l1 1l1 1h1l1 1l1 1l1 1v1l1 1l1 1l1 1v1l2 2v1
v0v1v1l-1 2v1v1l-1 1v2v1v2v1v1l-19 7v0zM176 136v0h-1l-2 -1h-2h-1l-2 -1h-1l-1 -1h-2l-1 -1h-1l-1 -1h-1l-1 -1l-1 -1l-1 -1h-2l-1 -1v-1l-1 -1l-1 -1l-1 -1h-1v-1l-1 -1v-1l-1 -1l-1 -1v-1l-1 -1v-1l-1 -1v-1v0h1v-1h1l1 -1h1l1 -1h1h1v-1h1h1l1 -1v0h2v0h1h1h1v0h1h1h1
h1v0h2h2l1 1h2l1 1h2l1 1h2l1 1h2l3 1l3 2l2 1l3 1l1 1h2l1 11v0v1h-1v1l-1 1v0l-1 1v0l-1 1h-1v1h-1h-1v1h-1h-1v0h-1v1h-1h-1v0h-1v0h-1h-1h-1l-1 -1h-1h-1v0zM754 415v0v-3l1 -4l1 -3l1 -3l1 -3v-3l1 -3l1 -3l1 -2v-3l1 -2l1 -2l1 -2l2 -3l1 -2l1 -2l1 -2l1 -2l2 -2l1 -2
l2 -2l2 -2l1 -2l2 -2l3 -2l2 -3l2 -2l3 -2l2 -3l3 -2l3 -3l3 -2l52 -37v0l4 -4l4 -4l3 -3l3 -4l4 -3l2 -3l3 -3l3 -3l2 -3l2 -3l2 -2l3 -3l1 -3l2 -2l2 -3l2 -3l1 -2l1 -3l2 -3l1 -2l1 -4l2 -2l1 -4l1 -2l1 -4l1 -3l2 -4l1 -3l3 -8l2 -8v0l5 -18l2 -8l2 -7l1 -3v-4l1 -3
l1 -3l1 -3v-3l1 -3v-3l1 -3v-3l1 -3v-4v-3v-3l1 -4v-3v-3v-4v-4l1 -4v-4v-5v-4v-5l4 -58v0v-6l-1 -5v-4v-5v-4v-4v-3v-4v-4l1 -3v-4v-4l1 -9l1 -11v0h-5h-5h-4h-4h-7h-3l-4 -1h-1h-2h-1h-2h-1h-2l-2 -1h-1h-2h-2l-1 -1h-2l-2 -1h-2h-2l-2 -1v0l-1 -2l-1 -1l-1 -1h-1v-1
l-1 -1v0v-1l-1 -1v0v-1l-1 -1v-1v0v-1l-16 -4h-66l-22 21h-338l-12 -5l-6 -12l-13 -4h-86l-19 17h-47v0l-1 3l-2 2l-1 3l-1 2v2l-1 2l-1 2v2l-1 2v1l-1 2v2v1l-1 2v1v2v2l-1 1v2v2v3v3v4v4v2v3l-1 2v3v0l-8 -1l-3 -1h-4h-4h-3l-3 -1h-3h-3h-3h-2h-3h-3h-2h-2h-3l-2 1h-2h-3
l-2 1h-2l-2 1h-3l-2 1l-3 1h-2l-3 1l-2 1l-3 1l-3 1l-3 1l-3 1v0l-4 3l-3 2l-3 2l-3 2l-3 2l-3 3l-2 1l-3 3l-1 1h-1l-1 1l-1 1l-1 1l-1 1l-1 1l-1 1l-1 1v1l-1 1l-1 1v1l-1 1l-1 1v1l-1 1v1l-1 1l-1 1v1v1l-1 1v2v1l-1 1v1v1v2v1l-1 1v2v1v1v2v1v1v2v2v1v2l1 2v3v3l1 4v0
l-2 1l-2 1l-2 1l-2 1l-1 1l-2 1l-1 1l-2 1l-2 2l-1 1l-2 1l-1 1l-1 2l-2 1l-1 1l-1 2l-1 1l-1 2l-1 1l-1 2l-1 1l-1 2l-1 2l-1 1v2l-1 1l-1 2v2l-1 1v2l-1 2v2l-1 1v2l-1 2v1v2l-1 2v2v1v2v2v2l-1 1v2v2v1v2l1 2v1v2v2v1v2v2l1 1v1v2v2l1 1v1l1 2v1v1v0l-1 2l-1 1l-1 1l-1 2
l-1 1v1l-1 1l-1 2l-1 1l-1 1v2l-1 1l-1 1l-1 1v2l-1 1v2l-1 1v1l-1 1v2l-1 1v1l-1 2v1v1l-1 2v1l-1 1v1v2v1v1l-1 2v1v2v1v1v1v2v1v1v2v1v1v1v2v1v1v1l1 3v3l1 2l1 3v2l1 2l1 3l1 2l1 2l1 3l1 2l1 2l2 3l1 2l1 2l2 2l1 2l2 2l2 2l1 3l2 1l2 2l2 2l2 2l2 2l2 1l2 2l3 2l2 1
l2 2l3 1l2 2l2 1l3 2l3 1l2 1l3 1l3 1l3 1l204 79v0l2 -5l2 -5v-3l1 -2l1 -3l1 -2l1 -3v-2v-1l1 -1v-1v-2v-1v-1v-1v-1v-1v-1v-1v-1v-1v-1v-1v-1l-1 -1v-1v-1l-1 -1v-1l-1 -1v0l-1 -1l-1 -1v-1l-1 -1l-1 -1h-1v-1l-1 -1l-2 -1l-1 -1h-1l-1 -1h-1l-2 -1l-1 -1h-2l-1 -1l-2 -1
h-2l-1 -1h-3l-62 -23v0l-4 -1l-4 -1l-4 -1l-4 -1l-4 -1l-4 -1l-4 -1l-3 -1l-4 -1l-3 -1l-4 -1l-3 -1l-1 -1h-2l-1 -1l-2 -1h-1l-1 -1h-2l-1 -1v0l-3 3l-1 2l-2 1l-1 1l-1 2l-2 1v0l-1 1h-1v1h-1l-1 1v0l-1 1h-1h-1l-1 1v0h-1h-1h-1l-1 1v0h-1v0l-3 -1l-3 -1h-3l-3 -1l-2 -1
l-3 -1l-2 -1l-3 -1l-2 -1l-2 -1l-3 -1l-2 -1l-2 -1l-3 -1l-2 -1l-2 -1l-2 -2l-2 -1l-2 -1l-2 -2l-2 -1l-2 -2l-1 -1l-2 -1l-1 -2l-2 -2l-2 -1l-1 -2l-1 -1l-2 -2l-1 -2l-1 -2l-2 -1l-1 -2l-1 -2l-1 -1l-1 -2v-2l-1 -2l-1 -2l-1 -2l-1 -2v-1l-1 -2v-3v-1l-1 -2v-2v-2v-2v-2
v-2v-2v-2v-3l1 -1v-3v-1l1 -3v-2l1 -2l1 -2l1 -2l1 -2v0l1 1v2l1 1l1 1l1 1l2 1l1 1l1 1l1 1l1 1l1 1l1 1l2 1l1 1l1 1l1 1l2 1h1l1 1l2 1l1 1l1 1l2 1h1l2 1h1l1 1l2 1h1l2 1h1l2 1h1l2 1h1l2 1h1l2 1h1h2l1 1h2h1l2 1h1h2h1h2h1h2l1 1h2h1h2h1h2h1h2h1h2h1h1l2 -1h1v0h2h1
h2l1 -1h2l1 -1h1l2 -1l1 -1h1l2 -1l1 -1l1 -1l1 -1l1 -1l1 -1h1l1 -2l1 -1l1 -1l1 -1l1 -1l1 -1l1 -2v-1l1 -1l1 -2l1 -1v-1l1 -2v-1l1 -2v-1v-1l1 -2v-1v-1v-2v-1v-2v-1v-2v-1v-1v-2v-1v-1l-1 -2v-1v-1l-1 -2v-1l-1 -1l-1 -1l-1 -1v-2l-1 -1l-1 -1l-1 -1l-1 -1l-1 -1l-1 -1
l-1 -1h-2v0l-2 -2l-3 -2l-3 -2l-3 -1l-2 -2l-3 -1l-3 -2h-2l-1 -1l-2 -1h-1l-1 -1h-2l-1 -1l-2 -1h-2l-1 -1h-1l-2 -1h-2h-1l-2 -1h-1h-2l-1 -1h-2h-1h-2l-1 -1h-2h-2h-1h-2h-1h-2h-2h-1h-2h-1h-2h-2l-1 1h-2h-2h-1l-2 1h-2h-1l-2 1h-2l-2 1h-1l-2 1h-1l-2 1l-2 1h-2v0v-1
l-1 -2v-2v-2l-1 -2v-2v-2v-1v-2v-2l1 -2v-1v-2l1 -2v-1l1 -2v-1l1 -2l1 -1v-2l2 -1l1 -2l1 -2l1 -1l1 -2l1 -1l1 -1l2 -2l2 -2l1 -1l2 -1l2 -2v0l1 1v2l1 1l1 1v1l1 1l1 1l1 1v2l1 1l1 1l1 1l1 1l1 1l1 1l1 1l1 1v1l1 1l2 1h1l1 1l1 1l1 1l1 1l1 1h1l1 1l1 1l1 1l2 1h1l1 1
h1l1 1l1 1h2l1 1l1 1h1l1 1h2h1l1 1h1h2l1 1h1h2l1 1h1h1h2h1l1 1h2h1h1h1h2h1h1l2 -1h1v0h1h2h1h2h1l2 -1h1l2 -1h1h1l1 -1h1l2 -1l1 -1h1l1 -1l1 -1l1 -1h1l1 -1l1 -1l1 -1l1 -1l1 -1l1 -1v-1l1 -1l1 -1v-1l1 -1l1 -1v-1l1 -1l1 -1v-1v-1l1 -1v-1v-1l1 -1v-2v-1v-1v-1v-1
v-1v-1v-1v-1v-1v-1l-1 -1v-1v-1v-1l-1 -1v-1l-1 -1h-1v-1l-1 -1l-1 -1v-1h-1v0l-3 -2l-3 -2l-2 -2l-3 -2l-3 -1l-2 -2l-2 -1l-3 -1l-2 -2h-2l-1 -1h-1l-2 -1h-1l-1 -1h-1l-1 -1h-1h-1h-1l-1 -1h-1h-1h-1h-2h-1l-1 -1h-1h-1h-1h-2h-1h-1h-2h-1h-1l-3 1h-2h-3l-3 1h-4l-3 1h-3
l-4 1l-4 1v0l1 -3v-2l1 -2v-3l1 -2l1 -2v-2l1 -3l1 -1v-2l1 -2l1 -2l1 -2l1 -1l1 -2l1 -2l1 -1l1 -1l1 -2l1 -1l1 -1l1 -1l1 -1l1 -2h2l1 -1l1 -1l2 -1l1 -1l1 -1h2l1 -1l2 -1h2l1 -1h2l1 -1h2l2 -1h2h2h2h2l2 -1h2h2h2h2h2h3h2h3h2h3h5l5 1h6h6l5 1v0l-1 7l-1 7l-1 7v2
l-1 3v3v3v2v3l-1 2v2v2v3v2v2v2v2v2l1 2v3v2v2v3l1 4l1 6v5v0l1 3v3v3v2l1 3v2l1 3v3l1 2v3l1 3l1 2v3l1 3l1 2v3l1 2l1 3l1 3l1 2l1 3l1 3l1 2v3l1 2l1 3l1 2l1 2l2 3l1 2l1 2l1 3v0l1 2l1 2l1 2l1 3l1 2l1 2l1 2l1 3l1 2l2 2l1 3l1 2l2 2l1 2l1 3l2 2l2 2l1 2l2 3l1 2l2 3
l2 2l2 2l1 3l2 2l2 3l4 5l4 5l4 5l57 54v0l1 2l1 1l1 2l2 2l1 1v2l1 2l1 1l1 2l1 2v1l1 2v2l1 2l1 1v2l1 2v1l1 4l1 3l1 3l1 6v3l1 3v0l1 2v2l1 2v1v2l1 2v2v2v2v1v4l1 3v3v4v1v2v1l1 2v1v2l1 1v1v2l1 1v1h1v1v1h1v1l1 1v0v0l1 1v0l1 1v1h1v1h1l1 1v0h1h1l1 1h1h1h1v0l1 1h1
h1h1h1h1h2h2l3 -1h2h2l5 -1h4h3l2 -1h2h2h3h1h1h1h1h1h1h1h1h1h1l1 1h1v0h1v0l1 -1l2 -1l1 -1l1 -2l1 -1l1 -1v-1l1 -2l1 -1v-1l1 -2l1 -1v-2l1 -1v-1v-2v-2l1 -1v-1v-2v-2v-1v-2v-1v-2v-1v-3v-4v-3v-6v-3v-4v-3v-2v-1v-1v-2v-1v-2v-2l1 -1v-1v-2v-1l1 -1v-2l1 -1v-1l1 -2
v-1l1 -2l1 -1l1 -1l1 -1l1 -1h204v0l-1 3v3l-1 2v3l-1 3v3v3l-1 3v2v3v3v2v3v3v3v2v3v2l1 3v3v2v3l1 2v3v2l1 2v3l1 2v3l1 2l1 4l10 8v0l1 -1h2h2h1h3h1h4h8h4h2h2h2h2h2h2h1l2 -1h2h2l1 -1h1h1h1l1 -1v0h1h1v-1h1l1 -1v0l1 -1v0l1 -1v0l1 -1v-1v-2l1 -1v-2l1 -3l1 -4l1 -2
v-1l1 -2v0zM908 607v0v-3v-4v-3v-3v-3v-1v-1v-1v-2v0v-2v-1l-1 -1v-1v-1l-1 -1v-1v-2h-1l-1 -2v-1l-1 -2l-1 -1l-1 -1l-1 -2l-1 -1l-1 -2l-111 -37v0l-2 1h-2l-1 1h-2l-2 1h-1l-2 1h-1l-1 1h-2l-1 1h-1l-1 1l-1 1h-1l-1 1l-2 1l-2 1l-2 2l-2 1l-3 1l-2 2l-3 2l-3 2v0l-1 3
l-1 1v1l-1 2v0v1v0v0v1v0v0v1v0v0l1 1v0v0l1 1v0h1v1h1v0l1 1h2l152 53l6 -8v0zM851 703v0l3 -2l3 -3l2 -2l2 -2l2 -2l2 -2l2 -2l2 -2l2 -2l1 -2l1 -1l2 -2l1 -2l2 -1l1 -2l1 -2l1 -2l1 -2l1 -2l1 -1l1 -2l1 -2l1 -2l1 -3l1 -2v-2l2 -6l5 -11l-159 -56v0l-3 1l-3 1l-2 1
l-2 1h-2h-1l-1 1v0h-1h-1v0v0l-1 2l-2 2l-3 4l-3 5l-1 2l-2 2l-1 2l-2 2l-2 2l-1 2l-2 2l-1 2l-1 1l-2 1v1l-1 1h-1l-1 1l-1 1l-1 1h-1l-1 1l-1 1h-1l-1 1h-1l-1 1h-1l-1 1h-1l-1 1h-2h-1l-1 1h-1h-1h-1h-2h-1h-1h-1h-2l-1 -1h-2h-1l-1 -1h-2l-1 -1l-319 -113v0l-2 -1l-2 -1
h-2l-3 -1h-1l-2 -1l-2 -1l-2 -1h-1l-2 -1l-1 -1l-2 -1l-1 -1l-2 -1l-1 -1l-1 -1l-1 -1l-1 -1l-1 -1l-2 -1l-1 -2v-1l-1 -1l-1 -1l-1 -1v-2l-1 -1v-1l-1 -2v-1l-1 -2v-1l-1 -1v-2v-1v-2l-1 -1v-2v-1v-2v-1l1 -2v-1v-2v-1v-2l1 -2v-1l1 -2v-1l1 -2v-1l1 -2v-2l1 -1l1 -2v-2
l1 -1l1 -2l1 -1l1 -2l1 -1l1 -2l1 -1l-176 -67v0l-1 2l-1 1l-1 2l-1 1l-2 2l-1 1l-1 2l-1 2l-1 1l-1 2l-1 2l-1 1l-1 2l-1 2l-1 1v2l-1 2l-1 1l-1 2v1l-1 2v2l-1 1l-1 2v2l-1 1v2l-1 2v2v1l-1 2v2v1l-1 2v2v1v2v2v1v2v1v2v2v1v2v2v2v1v2v2l1 1v2v2l1 1v2v2l1 1v2l1 1v2l1 2
v1l1 2v2l1 1l1 2v2l1 1l1 2v1l1 2l1 1l1 2l1 2l1 1v2l1 1l1 2l1 1l1 2l1 1l1 2l1 1l1 2l2 1l1 2l1 1l1 2l1 1l2 2l1 1l1 1l1 2l1 1l2 1l1 2l2 1l1 1l1 2l2 1l2 2l1 1l1 1l2 1l1 2l2 1l2 1l1 1l2 2l1 1l2 1l2 1l2 1l1 1l2 1l2 2l2 1l1 1l2 1l2 1l2 1l2 1l2 1l2 1l2 1l2 1l2 1
l2 1l352 152v0l2 1l2 1l2 1l3 1l2 1l2 1l2 1l2 1l3 1l2 1l2 1l3 1l2 1h2l2 1l3 1l2 1h2l3 1l2 1h2l3 1h2l2 1h3l2 1h3l2 1h2l2 1h3h2l2 1h3l5 1h5h4l5 1h5h5l4 1h5h5h5h5h4h5h9v0l13 1h5h6h5h5h5h4l5 -1h4h4h2h2l2 -1h2h2h2l2 -1h2h2h2l2 -1h1l2 -1h2l2 -1h2l2 -1h2l2 -1h2
l2 -1l2 -1h2l2 -1l2 -1l2 -1h2l2 -1l5 -2l4 -2l5 -2l5 -2l5 -3l6 -2l5 -3v0z" />
    <glyph glyph-name="phone" unicode="&#xe607;" 
d="M736 800h-448q-40 0 -68 -28t-28 -68v-832q0 -40 28 -68t68 -28h448q40 0 68 28t28 68v832q0 40 -28 68t-68 28zM512 -160q-27 0 -45.5 18.5t-18.5 45.5t18.5 45.5t45.5 18.5t45.5 -18.5t18.5 -45.5t-18.5 -45.5t-45.5 -18.5zM768 32h-512v640h512v-640z" />
    <glyph glyph-name="wenhao1" unicode="&#xe680;" 
d="M512 800q-136 0 -251 -67t-182 -182t-67 -251t67 -251t182 -182t251 -67t251 67t182 182t67 251t-67 251t-182 182t-251 67zM555 21.5q-16 -15.5 -38 -15.5t-38 15.5t-16 37t16 37.5t38 16t38 -16t16 -37.5t-16 -37zM582 344q-23 -29 -39.5 -70.5t-16.5 -69.5v-21h-28v46
q0 20 8 61q8 42 15 54q26 48 38 83q13 36 13 71.5t-15 58t-50 22.5q-50 0 -71.5 -29t-25.5 -57.5t-13 -41t-26 -12.5t-26.5 11.5t-9.5 28.5q0 29 31.5 69.5t72 54.5t76.5 14q63 0 100 -39.5t37 -85.5q0 -59 -70 -148z" />
    <glyph glyph-name="shanchu" unicode="&#xe613;" 
d="M387 59v393q0 7 -5 12.5t-12.5 5.5t-13 -5.5t-5.5 -12.5v-393q0 -7 5.5 -12t13 -5t12.5 5t5 12zM530 59v393q0 7 -5.5 12.5t-12.5 5.5t-12.5 -5.5t-5.5 -12.5v-393q0 -7 5.5 -12t12.5 -5t12.5 5t5.5 12zM815.5 488q-7.5 0 -12.5 -5.5t-5 -12.5v-482q0 -15 -10.5 -25.5
t-25.5 -10.5h-500q-15 0 -25.5 10.5t-10.5 25.5v482q0 7 -5 12.5t-13 5.5q-13 0 -17 -14v0.5v0.5v-487q0 -30 20.5 -50.5t50.5 -20.5h500q29 0 50 20.5t21 50.5v482q0 7 -5 12.5t-12.5 5.5zM869 613h-206l-65 66q-6 5 -14 5h-1h-142h-1q-8 0 -14 -5l-65 -66h-206
q-7 0 -12.5 -5.5t-5.5 -13t5.5 -12.5t12.5 -5h214h0.5h0.5q8 0 14 6l66 65h124l66 -65q6 -6 14 -6h0.5h0.5h214q7 0 12.5 5t5.5 12.5t-5.5 13t-12.5 5.5zM673 59v393q0 7 -5.5 12.5t-13 5.5t-12.5 -5.5t-5 -12.5v-393q0 -7 5 -12t12.5 -5t13 5t5.5 12z" />
    <glyph glyph-name="guanbi" unicode="&#xe632;" 
d="M934 -60h-122q-8 0 -14 6t-6 14.5t6 14.5t14 6h101v101q0 8 6 14t14.5 6t14.5 -6t6 -14v-122q0 -8 -6 -14t-14 -6zM933.5 183q-8.5 0 -14.5 6t-6 14v121q0 9 6 15t14.5 6t14.5 -6t6 -15v-121q0 -8 -6 -14t-14.5 -6zM933.5 425q-8.5 0 -14.5 6t-6 15v121q0 8 6 14t14.5 6
t14.5 -6t6 -14v-121q0 -9 -6 -15t-14.5 -6zM933.5 668q-8.5 0 -14.5 6t-6 14v101h-101q-8 0 -14 6t-6 14.5t6 14.5t14 6h122q8 0 14 -6t6 -14v-122q0 -8 -6 -14t-14.5 -6zM691 -60h-121q-9 0 -15 6t-6 14.5t6 14.5t15 6h121q8 0 14 -6t6 -14.5t-6 -14.5t-14 -6zM691 789
h-121q-9 0 -15 6t-6 14.5t6 14.5t15 6h121q8 0 14 -6t6 -14.5t-6 -14.5t-14 -6zM448 789h-121q-8 0 -14 6t-6 14.5t6 14.5t14 6h121q9 0 14.5 -6t5.5 -14.5t-5.5 -14.5t-14.5 -6zM206 -60h-122q-8 0 -14 6t-6 14v122q0 8 6 14t14.5 6t14 -6t5.5 -14v-101h102q8 0 14 -6
t6 -14.5t-6 -14.5t-14 -6zM206 789h-102v-101q0 -8 -5.5 -14t-14 -6t-14.5 6t-6 14v122q0 8 6 14t14 6h122q8 0 14 -6t6 -14.5t-6 -14.5t-14 -6zM84.5 587q8.5 0 14 -6t5.5 -14v-121q0 -9 -5.5 -15t-14 -6t-14.5 6t-6 15v121q0 8 6 14t14.5 6zM84.5 345q8.5 0 14 -6t5.5 -15
v-121q0 -8 -5.5 -14t-14 -6t-14.5 6t-6 14v121q0 9 6 15t14.5 6zM700 234l-41 -41q-5 -5 -13 -5t-14 5l-116 117l-116 -117q-6 -5 -14 -5t-13 5l-41 41q-6 6 -6 14t6 14l116 116l-116 116q-6 6 -6 14t6 13l41 41q5 6 13 6t14 -6l116 -116l116 116q6 6 14 6t13 -6l41 -41
q6 -5 6 -13t-6 -14l-116 -116l116 -116q6 -6 6 -14t-6 -14zM327 -19h121q9 0 14.5 -6t5.5 -14.5t-5.5 -14.5t-14.5 -6h-121q-8 0 -14 6t-6 14.5t6 14.5t14 6z" />
    <glyph glyph-name="dianhua1" unicode="&#xe60a;" 
d="M994 46l-4 6l-11 12q-12 14 -43 40q-44 37 -81 61l-50 32l-22 11q-17 8 -37 1q-16 -5 -24 -19l-18 -25q-3 -7 -7 -14q-4 -6 -13 -24.5t-15 -29.5q-8 -14 -22 -24.5t-32.5 -14t-38.5 7.5q-105 60 -177 128q-103 98 -139 178q-8 13 -1.5 38t27.5 35q14 7 36 15.5t32 14.5
q7 5 15 9.5t19 11.5q1 0 4.5 3.5t4.5 3.5q1 2 3 3q19 19 9 44l-3 8q-14 34 -37 72q-18 30 -43 63q-16 22 -33 38t-26 21l-10 5q-9 5 -13 7q-24 10 -51 -2q-17 -6 -32.5 -15.5t-22.5 -15t-27 -21.5q-46 -38 -72 -85t-20 -90q10 -74 91 -204.5t188.5 -233t245 -179
t215.5 -85.5q82 -11 175 75q40 37 57 75q7 14 8.5 30.5t-5.5 32.5z" />
    <glyph glyph-name="weibiaoti1" unicode="&#xe621;" 
d="M897 -28l27 -91l-99 55q-73 -18 -109 -18q-129 0 -218.5 77t-89.5 186.5t89.5 187t218.5 77.5q81 0 151.5 -35.5t113.5 -96.5t43 -132q0 -114 -127 -210zM616 300q-13 0 -24.5 -11.5t-11.5 -25t11.5 -25t24.5 -11.5q20 0 33 11t13 25.5t-13 25.5t-33 11zM816 300
q-14 0 -25 -11.5t-11 -25t11 -25t25 -11.5q19 0 32 11t13 25.5t-13 25.5t-32 11zM385 177q0 -38 11 -76q-18 -1 -34 -1q-13 0 -25 0.5t-27 3t-22.5 4t-27 5.5t-25.5 5l-126 -64l36 110q-145 101 -145 245q0 85 49 156.5t132 112.5t181 41q134 0 238.5 -73t127.5 -183
q-19 2 -35 2q-129 0 -218.5 -84t-89.5 -204zM245 564q-22 0 -38.5 -13t-16.5 -32.5t16.5 -32.5t38.5 -13q20 0 32.5 12.5t12.5 33t-12.5 33t-32.5 12.5zM498 564q-21 0 -37.5 -13t-16.5 -32.5t16.5 -32.5t37.5 -13t33.5 12.5t12.5 33t-12.5 33t-33.5 12.5z" />
    <glyph glyph-name="unie664" unicode="&#xe674;" 
d="M-53 832v0v0zM980 -129h1l-274 274q83 102 87 229q4 76 -23 150t-79 128q-44 48 -103.5 79t-125.5 40q-24 3 -50 3q-63 0 -123 -21t-109 -59q-57 -43 -94.5 -105.5t-48.5 -133.5q-8 -44 -5.5 -88t15.5 -87t35 -81q46 -81 123 -131q72 -47 157 -57q12 -3 25 -4t25 -1
q121 0 219 70l273 -275l5 -4q7 -6 15 -8.5t17 -2.5q21 0 36 14.5t15 35.5q0 19 -13 35v0zM703 245q-17 -35 -41.5 -64t-55 -51.5t-66 -38t-72.5 -22.5q-72 -12 -142 8q-68 19 -122.5 65t-83.5 110q-34 71 -30 153.5t45 150.5q35 62 95 103t131 52l6 1q6 1 10 1q18 3 36 3
q73 0 137 -30q37 -18 69.5 -45t57 -61t38.5 -73q25 -63 22 -132.5t-34 -129.5v0z" />
    <glyph glyph-name="weibo" unicode="&#xe622;" 
d="M727 307q-15 3 -19.5 9.5t-1.5 11.5l3 5q2 2 4 6t5.5 16t4 23t-4 25.5t-16.5 25.5q-14 15 -37 19.5t-45.5 0.5t-43.5 -9.5t-34 -10.5l-13 -6q-10 -3 -16.5 -4t-10.5 0.5t-5.5 3t-1.5 7t0.5 9.5t2.5 12.5t3 14.5q0 15 -2 28t-11 27.5t-23 22t-40.5 7t-62.5 -12.5
q-35 -12 -71.5 -36.5t-64 -50t-50 -50.5t-34.5 -40t-12 -16q-21 -27 -35 -56t-20 -48.5t-8 -38t-2 -24.5v-9v0q6 -49 30 -87.5t57 -62.5t78 -41t86.5 -24.5t87.5 -11.5q76 -6 157 12t151.5 62t98.5 105q17 36 17.5 67.5t-10.5 51.5t-29 35.5t-33.5 22.5t-28.5 9v0zM415 -10
q-109 -5 -186.5 43t-77.5 121t77 125.5t187 57.5q112 5 188.5 -37t76.5 -114q0 -74 -78 -132.5t-187 -63.5v0zM386 273q-130 -16 -130 -156v-4t2 -12t5.5 -17t12 -17t19.5 -15q67 -33 125.5 -20t94.5 59q14 17 18.5 42.5t-2 51.5t-23 47.5t-48.5 33.5t-74 7v0zM349 79
q-21 -2 -35.5 8t-14.5 28q0 17 14 32t34 17q23 3 37.5 -8.5t14.5 -29.5q0 -17 -14.5 -31t-35.5 -16v0zM436 153q-7 -5 -14.5 -4.5t-11.5 6.5t-2.5 14.5t8.5 13.5q9 6 16.5 5t11 -7t1.5 -14.5t-9 -13.5v0zM799 367q9 0 15.5 6t7.5 14q1 1 1 3q3 33 -2 58t-16.5 39t-26.5 23
t-30 12t-28 3.5t-21.5 -0.5l-8.5 -1q-10 0 -17 -7.5t-7 -17.5t7 -17t17 -7q32 6 50.5 0.5t26 -19.5t9.5 -28.5t0 -25.5l-2 -11q0 -10 7.5 -17t17.5 -7v0zM781 654q-45 11 -120 -4q-1 0 -2 -1t-2 -1v-2q-12 -3 -19 -12.5t-7 -21.5q0 -14 10.5 -24.5t24.5 -10.5q19 2 32 7
q5 1 17.5 2t33.5 -4t42 -13t43.5 -26.5t37.5 -44.5q27 -60 11 -116q-7 -17 -7 -34q0 -26 35 -26q28 0 33 34h1q13 47 14 87.5t-10.5 71t-29 55t-42 41t-48 27t-48.5 16.5v0zM781 654z" />
    <glyph glyph-name="icon" unicode="&#xe633;" 
d="M62 749v-899h900v899h-900v0zM738 160l-74 -74l-137 137l-138 -137l-73 74l137 137l-137 137l73 74l138 -137l137 137l74 -74l-137 -137l137 -137v0zM738 160z" />
    <glyph glyph-name="kongjian" unicode="&#xe67b;" 
d="M740 746q-51 25 -106 38v0q-53 12 -108 12q-24 0 -49 -2q-8 -1 -17 -3q-30 -4 -59 -12q-156 -41 -256 -170t-100 -294.5t100 -294.5t256 -170q29 -8 59 -12q9 -2 17 -3q25 -2 49 -2q55 0 108 12q55 13 106 38q121 60 194.5 176t73.5 255.5t-73.5 255.5t-194.5 176z
M696 387q-58 24 -190.5 21t-184.5 -27q78 -5 270 -18l-6 -12q-36 -23 -110 -71.5t-111 -72.5v-6q47 -6 99 -7.5t110.5 2t95.5 7t100 10.5v-6h-12q-6 -4 -13.5 -8.5t-9.5 -7t-4 -10t-4 -22.5q8 -39 31 -150l-3 -3l-3 -3h-25q-46 39 -104.5 71.5t-110.5 36.5
q-32 -18 -95.5 -54t-94.5 -54q-4 2 -12.5 6t-12.5 6q7 39 21.5 117t21.5 117q-63 58 -172 156q1 2 4 13l1 1q1 3 1 4q172 23 228 30q46 82 122 216h13q66 -139 104 -222q41 -4 120.5 -12t119.5 -12l3 -6l3 -6q-29 -28 -86.5 -84t-85.5 -84v-30q-38 3 -113.5 9t-113.5 9l12 6
q97 70 209 150h-12z" />
    <glyph glyph-name="24" unicode="&#xe657;" 
d="M251 360h522v-30h-522v30zM251 196h522v-30h-522v30zM251 32h254v-30h-254v30zM884 511v0v0l-235 236v0h-30h-9h-470v-894h744v618v39v1v0zM649 705l195 -196h-195v196zM855 -117h-686v834h450v-208v-15v-15h236v-596z" />
    <glyph glyph-name="35" unicode="&#xe600;" 
d="M959 401h-341l-106 327l-106 -327h-341l276 -202l-105 -327l276 202l276 -202l-105 327zM732 -50l-220 161l-220 -161l84 260l-220 161h272l84 260l84 -260h272l-220 -161z" />
    <glyph glyph-name="weibo1" unicode="&#xe623;" 
d="M512 -185q-98 0 -187.5 38.5t-155 104t-104 155t-38.5 187.5t38.5 187.5t104 155t155 104t187.5 38.5t187.5 -38.5t155 -104t104 -155t38.5 -187.5t-38.5 -187.5t-104 -155t-155 -104t-187.5 -38.5zM512 733q-88 0 -168.5 -34t-138.5 -92t-92 -138.5t-34 -168.5
t34 -168.5t92 -138.5t138.5 -92t168.5 -34t168.5 34t138.5 92t92 138.5t34 168.5t-34 168.5t-92 138.5t-138.5 92t-168.5 34zM655 303q-10 2 -13.5 6t-1.5 8l2 3q2 5 5.5 12t3 24t-12.5 29q-19 15 -45.5 14.5t-50.5 -9.5l-23 -8q-21 -7 -23.5 1t2.5 30q0 82 -95 47
q-24 -8 -49.5 -25t-44.5 -35t-34.5 -35t-24 -27t-8.5 -11q-22 -30 -33.5 -60t-10.5 -44v-15q16 -134 232 -157q84 -6 167.5 27t112.5 96q13 25 13.5 46.5t-6.5 35t-19.5 24.5t-22.5 16t-20 7zM440 85q-77 -3 -129 29.5t-52 83.5q0 50 52.5 85.5t128.5 40.5q76 3 128.5 -26
t52.5 -77q0 -51 -53.5 -92.5t-127.5 -43.5zM420 280q-29 -3 -48.5 -15t-27 -27t-11 -29.5t-3.5 -24.5l1 -10q0 -4 1 -9.5t7.5 -17.5t18.5 -18q45 -21 86 -12.5t65 40.5q11 14 12.5 36t-7 43t-33.5 34t-61 10zM396 146q-15 -2 -24.5 5.5t-9.5 18.5q0 13 8.5 22.5t22.5 11.5
q14 3 24 -5.5t10 -21.5q2 -10 -8 -19t-23 -12zM454 198q-11 -6 -17 0q-6 11 3 20t17 0q5 -5 3.5 -11.5t-6.5 -8.5zM703 344q10 0 17 14v3q4 32 -4 53t-22.5 28.5t-29 10.5t-25.5 2l-11 -1q-17 0 -17 -17.5t17 -17.5q22 5 35 1t18 -13.5t6 -19.5t0 -18l-1 -8q0 -17 17 -17z
M693 539q-15 3 -32.5 3t-32.5 -1.5t-17 -1.5h-3v0q-17 -6 -17 -24q0 -10 6.5 -17t16.5 -7q14 4 21 7q3 3 18 1t31.5 -5.5t36.5 -18t33 -35.5q10 -20 12 -39t0 -28t-5 -12q-3 -10 -3 -23q0 -21 24 -21q6 0 10 0.5t8 5.5t6 15v0q12 36 8.5 66t-14.5 52.5t-30 39.5t-38 27
t-39 16z" />
    <glyph glyph-name="weibo2" unicode="&#xe624;" 
d="M730 320l15 35q29 92 -54 107q-67 12 -205 -33q34 29 33 73t-30 65q-30 19 -69 18.5t-84 -22.5t-90 -54.5t-86 -76.5t-72.5 -89.5t-50.5 -93t-19 -86.5q0 -44 24.5 -89t71 -84t126.5 -64t180 -25q101 0 183 21t132.5 53t85 71.5t48 75t13.5 65.5q0 37 -15.5 64t-38 39.5
t-44.5 20t-38 8.5zM432 -49.5q-123 -11.5 -215.5 39.5t-100 134.5t73.5 150.5t204 78.5t215.5 -39.5t100.5 -134.5t-73.5 -150.5t-204.5 -78.5zM374 273q-67 -11 -107 -59.5t-30.5 -105.5t63.5 -89.5t120.5 -21t107 60t30.5 105.5t-63.5 89t-120.5 21zM358.5 56
q-21.5 -6 -40.5 4t-24.5 29.5t6 37.5t33 24t40.5 -3.5t24.5 -29.5t-6 -38t-33 -24zM433 141q-11 0 -19 7.5t-8 18.5t8 19t19 8t19 -8t8 -19t-8 -18.5t-19 -7.5zM951 604q-44 57 -113 80.5t-153 11.5q-14 -2 -23 -13.5t-7 -25.5t13.5 -22.5t26.5 -6.5q134 19 201 -66
q30 -39 38 -89t-10 -93q-5 -13 0.5 -26t18.5 -19q7 -2 13 -2q24 0 32 21q25 60 14.5 129t-51.5 121zM718 570q-14 -2 -22.5 -13.5t-6.5 -25.5t13.5 -22.5t25.5 -6.5q49 7 72 -22q10 -13 12.5 -30t-3.5 -32q-5 -13 0.5 -26t18.5 -19q7 -2 13 -2q24 0 33 21q12 32 7 67.5
t-27 62.5q-47 61 -136 48z" />
    <glyph glyph-name="icon47" unicode="&#xe601;" 
d="M512 -102l-63 61q-60 53 -94.5 83.5t-81.5 74.5t-73 73t-55.5 67t-44.5 68.5t-25 66t-10 70.5q0 101 71 170.5t175 69.5q57 0 110.5 -24.5t90.5 -67.5q37 43 90.5 67.5t110.5 24.5q104 0 175 -69.5t71 -170.5q0 -35 -10 -70.5t-25 -66t-44.5 -68.5t-55.5 -67t-73 -73
t-81.5 -74.5t-95.5 -83.5z" />
    <glyph glyph-name="xiangji" unicode="&#xe608;" 
d="M928 571h-180v2q0 50 -35 85t-84 35h-234q-49 0 -84 -35t-35 -85v-2h-180q-31 0 -63.5 -47t-32.5 -82v-423q0 -35 32 -78.5t64 -43.5h832q32 0 64 43.5t32 78.5v423q0 35 -32.5 82t-63.5 47zM512.5 10q-84.5 0 -147 60t-62.5 143.5t62.5 143.5t147 60t147 -60
t62.5 -143.5t-62.5 -143.5t-147 -60zM914 411h-85v46h85v-46zM512.5 341q-47.5 0 -80.5 -36t-33 -85q0 -50 33.5 -89t80.5 -39t80.5 39t33.5 89q0 49 -33.5 85t-81 36z" />
    <glyph glyph-name="yonghu" unicode="&#xe636;" 
d="M691 242q62 43 98.5 110.5t36.5 145.5q0 130 -92 222t-222 92q-85 0 -157 -42t-113 -113.5t-41 -155.5q0 -79 36 -146.5t98 -109.5q-139 -56 -225.5 -180t-86.5 -277v0h88v0q0 153 102 267t252 132l7 0.5t17 1t22 0.5t27 -0.5t27 -1.5h5v0q146 -21 244.5 -133.5
t98.5 -263.5v0h90v0q-2 152 -88 275.5t-224 176.5zM512 266q-98 0 -166.5 68.5t-68.5 166t68.5 166t166.5 68.5t166.5 -68.5t68.5 -166t-68.5 -166t-166.5 -68.5z" />
    <glyph glyph-name="sousuo" unicode="&#xe675;" 
d="M126 346.5q0 93.5 46 172.5t125 125t172.5 46t172.5 -46t125 -125t46 -172.5t-46 -172.5t-125 -125t-172.5 -46t-172.5 46t-125 125t-46 172.5zM723 33l182 -183l53 53l-182 182q97 113 97 261q0 110 -54 203t-147 147t-202.5 54t-202.5 -54t-147 -147t-54 -202.5
t54 -202.5t147 -147t202 -54q143 0 254 90z" />
    <glyph glyph-name="shangchuan" unicode="&#xe61b;" horiz-adv-x="1025" 
d="M670 233l24 25l-164 164l-164 -164l24 -25l123 124v-499h34v498zM838 470v4.5v4.5q0 109 -77.5 186.5t-186.5 77.5q-78 0 -142 -41.5t-97 -109.5q-29 15 -61 15q-50 0 -88 -32.5t-47 -81.5q-61 -21 -99.5 -74t-38.5 -119q0 -85 60 -145t145 -60h205v34h-205
q-71 0 -121 50t-50 121q0 54 32 98.5t84 62.5l19 7l3 20q6 37 34.5 61t66.5 24q24 0 46 -11l31 -16l15 32q28 60 85 95.5t123 35.5q95 0 162.5 -67.5t67.5 -162.5v-3v-5l-1 -35h35q63 0 108 -45t45 -108t-45 -108t-108 -46h-8h-181v-34h189v0q78 0 132.5 55t54.5 132.5
t-55 132.5t-132 55z" />
    <glyph glyph-name="guanbi1" unicode="&#xe634;" 
d="M870 658q-73 73 -167.5 110.5t-190.5 37.5t-190.5 -37.5t-167 -110.5t-110.5 -167.5t-38 -190.5t38 -190.5t110.5 -167.5t167 -110.5t190.5 -37.5t190.5 37.5t167.5 110.5t111 167.5t38 190.5t-38 190.5t-111 167.5zM183 -29q-67 67 -101.5 154t-34.5 175t34.5 175
t101.5 154q89 89 209 121t240 0t209.5 -121t121 -209t0 -240t-121 -209t-209.5 -121t-240 0t-209 121zM741 500l-28 29l-201 -200l-199 199l-29 -29l200 -199l-200 -199l29 -29l199 199l201 -200l28 29l-200 200z" />
    <glyph glyph-name="sousuo1" unicode="&#xe676;" 
d="M1022 -123l-314 307q80 105 80 237q0 106 -52.5 196t-143.5 142t-197.5 52t-197.5 -52t-143.5 -142t-52.5 -196t52.5 -196t143.5 -142.5t198 -52.5q123 0 224 70l316 -310q9 -8 23 6l58 58q14 15 6 23zM80 421q0 129 92 220.5t222.5 91.5t223 -91.5t92.5 -220.5
t-92.5 -221t-223 -92t-222.5 92t-92 221z" />
    <glyph glyph-name="qia" unicode="&#xe669;" 
d="M928 -20h-832q-13 0 -22.5 9.5t-9.5 22.5v576q0 13 9.5 22.5t22.5 9.5h832q13 0 22.5 -9.5t9.5 -22.5v-576q0 -13 -9.5 -22.5t-22.5 -9.5zM128 44h768v512h-768v-512zM800 364h-576q-13 0 -22.5 9.5t-9.5 22.5t9.5 22.5t22.5 9.5h576q13 0 22.5 -9.5t9.5 -22.5
t-9.5 -22.5t-22.5 -9.5zM352 108h-128q-13 0 -22.5 9.5t-9.5 22.5t9.5 22.5t22.5 9.5h128q13 0 22.5 -9.5t9.5 -22.5t-9.5 -22.5t-22.5 -9.5z" />
    <glyph glyph-name="guanbi2" unicode="&#xe635;" 
d="M481.5 748q-97.5 0 -186 -37.5t-152.5 -101.5t-102 -153t-38 -186t38 -185.5t102 -152.5t152.5 -102t186 -38t186 38t152.5 102t102 152.5t38 185.5t-38 186t-102 153t-152.5 101.5t-186 37.5zM683 69v0q-10 -10 -24 -10t-24 10l-153 153l-154 -154v0q-10 -10 -24 -10
t-24 10t-10 24t10 24l153 154l-153 154q-10 10 -10 24t10 24v0q10 10 24 10t24 -10l153 -154l154 154v0q10 10 24 10t24 -10t10 -24t-10 -24l-153 -154l153 -153q10 -10 10 -24t-10 -24z" />
    <glyph glyph-name="shoucang" unicode="&#xe602;" 
d="M782 -104l-264 169l-262 -173l71 317l-237 242l308 2l115 294l122 -296l310 1l-239 -240l76 -316v0zM782 -104z" />
    <glyph glyph-name="jiazai" unicode="&#xe65d;" 
d="M614 658q0 -53 -37.5 -90.5t-90.5 -37.5t-90.5 37.5t-37.5 90.5t37.5 90.5t90.5 37.5t90.5 -37.5t37.5 -90.5zM758 431q48 0 81.5 33.5t33.5 81.5t-33.5 81.5t-81.5 33.5t-81.5 -33.5t-33.5 -81.5t33.5 -81.5t81.5 -33.5zM870.5 377q-42.5 0 -72.5 -30t-30 -72.5
t30 -72.5t72.5 -30t72.5 30t30 72.5t-30 72.5t-72.5 30zM758 93q-37 0 -63.5 -26.5t-26.5 -63.5t26.5 -63.5t63.5 -26.5t63 27q27 26 27 63t-26.5 63.5t-63.5 26.5zM486.5 -33q-31.5 0 -54 -22.5t-22.5 -54t22.5 -54t54 -22.5t54 22.5t22.5 54t-22.5 54t-54 22.5zM215 67
q-27 0 -45.5 -19t-18.5 -45.5t18.5 -45t45 -18.5t45.5 18.5t19 45t-18.5 45.5t-45.5 19zM102.5 326q-21.5 0 -36.5 -15t-15 -36.5t15 -36.5t36.5 -15t36.5 15t15 36.5t-15 36.5t-36.5 15zM215 508v0q1 0 4 0.5l3 0.5q13 2 20 10q11 11 11 27t-11 27t-27 11t-27.5 -11
t-11.5 -27t11.5 -27t27.5 -11z" />
    <glyph glyph-name="hongbao" unicode="&#xe64e;" 
d="M832 -212h-576q-53 0 -90.5 37.5t-37.5 90.5v640l384 -128h64l384 128v-640q0 -53 -37.5 -90.5t-90.5 -37.5zM577 110h93q31 0 32 27q1 11 -8.5 23.5t-23.5 12.5h-93v23q70 72 89 88q27 25 11 44q-9 10 -22 10t-24 -10l-87 -79q-62 64 -75 77q-11 10 -25 13.5t-26 -6.5
q-9 -14 -6 -25.5t11 -19.5l87 -91l-1 -25h-96q-10 0 -18.5 -13.5t-8.5 -25.5q0 -10 7.5 -17t19.5 -7l96 1v-69h-100q-11 0 -19 -8.5t-8 -19.5q-1 -11 7 -21.5t20 -10.5h100v-33q2 -30 35 -31q14 0 23.5 9.5t9.5 20.5l-1 34q84 1 99 0q12 0 20 10t7 22q-1 29 -34 29h-91v68z
M576 492h-64l-384 128q0 53 37.5 90.5t90.5 37.5h576q53 0 90.5 -37.5t37.5 -90.5z" />
    <glyph glyph-name="shijian" unicode="&#xe64b;" 
d="M507 -40q-111 0 -206 55t-150 150t-55 206.5t55 206t150 149.5t206.5 55t206 -55t149.5 -149.5t55 -206t-55 -206.5t-149.5 -150t-206.5 -55v0zM507 736q-99 0 -183 -49t-132.5 -133t-48.5 -183t48.5 -183t132.5 -132.5t183 -48.5t183 48.5t133 132.5t49 183t-49 183
t-133 133t-183 49v0zM313 243q-4 9 -0.5 18.5t12.5 13.5l180 60v253q0 11 7 18t17 7t17 -7t7 -18v-266v-2v-1q1 -16 -14 -23l-193 -65q-9 -4 -18.5 -0.5t-14.5 12.5v0zM718 268z" />
    <glyph glyph-name="shoucang1" unicode="&#xe603;" 
d="M954 437q-2 -20 -2 -21q-4 -54 -29 -105q-38 -78 -99 -148q-56 -66 -136 -139q-65 -59 -142 -120q-19 -16 -41 -14q-15 2 -27 12q-145 115 -247 222q-71 76 -114 152q-33 58 -42 104q-1 2 -6 45l-1 5v25l1 5q0 1 0.5 9t1.5 12q12 81 60 140q67 82 168 91q52 5 103 -15
q55 -22 96 -69q1 -1 13 -16l3 4q34 44 80 69q71 38 148 25q88 -15 148 -88q55 -67 62 -156q0 -1 2 -21v-8zM899 441q-2 24 -2 25q-8 72 -54 123q-65 72 -158 63q-62 -7 -111 -55q-29 -28 -47 -72q-5 -11 -16 -11t-16 11q-16 38 -38 62q-56 63 -134 65q-76 3 -130 -49
q-88 -84 -65 -208q7 -35 35 -85q40 -72 112 -148q95 -99 232 -209q4 -3 8 0q73 59 134 114q80 73 134 136q60 69 94 143q21 44 22 95z" />
    <glyph glyph-name="shijian1" unicode="&#xe64c;" 
d="M512 -212q-139 0 -257 68.5t-186.5 186.5t-68.5 257t68.5 257t186.5 186.5t257 68.5t257 -68.5t186.5 -186.5t68.5 -257t-68.5 -257t-186.5 -186.5t-257 -68.5zM512 755q-93 0 -177 -36t-145 -97t-97 -145t-36 -177t36 -177t97 -145t145 -97t177 -36t177 36t145 97
t97 145t36 177t-36 177t-97 145t-145 97t-177 36zM740 243h-285v398h57v-341h228v-57z" />
    <glyph glyph-name="bianji" unicode="&#xe605;" 
d="M769 432l-126 126l63 63q16 16 38 16t38 -16l50 -50q16 -16 16 -38t-16 -38zM403 67l-126 125l343 340l126 -126zM176 -37l77 205l125 -125z" />
    <glyph glyph-name="icon1" unicode="&#xe63f;" 
d="M193 -136h107v227h-107v-227zM371 -136h106v334h-106v-334zM569 -136h107v419h-107v-419zM761 -136h106v539h-106v-539zM855 503l42 238l-238 -53l74 -70l-208 -215l-102 92l-297 -305l43 -42v0l256 263l103 -92l249 258z" />
    <glyph glyph-name="bianji1" unicode="&#xe606;" 
d="M784 525l-126 126l63 63q15 15 37.5 15t37.5 -15l51 -51q15 -15 15 -37.5t-15 -37.5zM418 159l-126 126l342 340l126 -126zM191 56l77 205l124 -125zM756 13q14 0 23 -9.5t9 -22.5t-9 -22.5t-23 -9.5h-564q-13 0 -22 9.5t-9 22.5t9 22.5t22 9.5h564z" />
    <glyph glyph-name="apple" unicode="&#xe66c;" 
d="M837 124q42 -59 96 -77q-24 -72 -75 -151q-79 -119 -156 -119q-28 0 -85 19q-52 20 -91 20t-86 -21q-49 -19 -81 -19q-92 0 -181 157q-89 154 -89 304q0 138 68 226q69 88 172 88q22 0 50 -5.5t57 -20.5q32 -18 52.5 -24.5t31.5 -6.5q14 0 41.5 6t54.5 22q30 17 51.5 25
t44.5 8q71 0 129 -39q30 -20 62 -60q-47 -41 -68 -72q-40 -57 -40 -125q0 -74 42 -135zM631 602q-36 -33 -66 -44q-10 -3 -26 -5.5t-36 -4.5q1 90 47 155.5t151 90.5q2 -10 4 -14v-12q0 -37 -18 -83q-18 -45 -56 -83z" />
    <glyph glyph-name="kongjian1" unicode="&#xe67c;" 
d="M662 330q5 6 5 11.5t-2 8.5l-3 3l-322 -4l241 -32q-185 -105 -199 -121q-4 -4 -5.5 -9t-1 -8.5t2 -6.5t3.5 -4l1 -2l293 13l-1 4l-194 16l43 30t88.5 62.5t50.5 38.5zM512 812q-139 0 -257 -68.5t-186.5 -186.5t-68.5 -257t68.5 -257t186.5 -186.5t257 -68.5t257 68.5
t186.5 186.5t68.5 257t-68.5 257t-186.5 186.5t-257 68.5zM674 183l32 -2l-31 -2l30 -176l-193 101l-193 -101l37 215l-157 152l216 32l97 195l97 -195l216 -32l-157 -152z" />
    <glyph glyph-name="fenxiang" unicode="&#xe671;" 
d="M841 788q66 -25 95.5 -89t5.5 -130t-88 -96t-130.5 -5.5t-96 88.5t-5.5 130t88 96t131 6v0zM279 434q61 -22 88.5 -81t5 -120.5t-81.5 -89t-120.5 -5t-89 81.5t-5 120.5t81.5 89t121 4.5v0zM862 82q56 -21 81 -75t4.5 -110t-74.5 -81.5t-110 -5t-81.5 75t-5 110.5t75 81
t110.5 5v0zM284 238l29 44l497 -322l-29 -44l-497 322v0zM793 682l30 -44l-559 -382l-30 43l559 383v0zM793 682z" />
    <glyph glyph-name="dianhua2" unicode="&#xe60b;" 
d="M749 780h-474q-22 0 -36.5 -15t-14.5 -36v-882q0 -21 14.5 -36t36.5 -15h474q22 0 36.5 15t14.5 36v882q0 21 -14.5 36t-36.5 15zM512 -135q-14 0 -24 10t-10 24t10 24t24 10t24 -10t10 -24t-10 -24t-24 -10zM734 -10h-444v664h444v-664z" />
    <glyph glyph-name="fenxiang1" unicode="&#xe672;" 
d="M768 182q-52 0 -95.5 -28.5t-64.5 -74.5l-290 134q36 48 36 106.5t-37 107.5l286 143q20 -50 65 -81t100 -31q73 0 125 52t52 125t-52 125t-125 52t-125 -52t-52 -125q0 -7 2 -26l-304 -153q-50 41 -112 41q-73 0 -125 -52t-52 -125.5t52 -125.5t125 -52q62 0 112 41
l306 -141q-4 -20 -4 -37q0 -74 52 -126t125 -52t125 52t52 125.5t-52 125.5t-125 52zM768 773q57 0 97.5 -40.5t40.5 -97.5t-40.5 -97.5t-97.5 -40.5t-97.5 40.5t-40.5 97.5t40.5 97.5t97.5 40.5zM177 182q-57 0 -97.5 40.5t-40.5 97.5t40.5 97.5t97.5 40.5t97.5 -40.5
t40.5 -97.5t-40.5 -97.5t-97.5 -40.5zM768 -133q-57 0 -97.5 40.5t-40.5 97.5t40.5 97t97.5 40t97.5 -40t40.5 -97t-40.5 -97.5t-97.5 -40.5z" />
    <glyph glyph-name="hua" unicode="&#xe65c;" 
d="M419 -83q-14 0 -23 10q-22 25 -53 43.5t-56 27t-51.5 13.5t-37 5.5t-15.5 0.5v0q-13 0 -22 8.5t-9.5 21.5t8.5 21.5t22 9.5q6 0 20 -1t45.5 -6.5t62.5 -16t67.5 -33t64.5 -53.5q9 -9 8.5 -22t-10.5 -21q-9 -8 -21 -8v0zM627 -83q-12 0 -21 8q-9 9 -9.5 21.5t7.5 21.5
q29 31 66.5 53.5t68 33t61.5 16t45 6.5t20 1q12 0 21 -9t9 -21.5t-9 -21.5t-22 -9v0v0q-6 0 -15.5 -0.5t-36.5 -5.5t-52 -13.5t-56 -27t-54 -43.5q-9 -10 -23 -10v0zM572 72h-98q-4 0 -9 1q-78 10 -143 53.5t-108 115.5q-50 83 -60.5 182t22.5 176q8 18 28 19h9
q89 0 165 -33q54 98 123 147q4 3 8 5v0q16 7 30 -2l4 -4q68 -49 122 -148q77 35 168 35h10q20 -1 28 -19q33 -78 22.5 -176.5t-60.5 -181.5q-43 -72 -108 -115.5t-143 -53.5q-5 -1 -10 -1v0zM480 133h87h2q135 15 210 140q39 65 50.5 143.5t-8.5 141.5q-85 -3 -154 -41
q-12 -6 -24.5 -2t-18.5 16q-47 93 -103 140q-56 -47 -102 -139q-6 -11 -18.5 -15t-24.5 2q-67 36 -150 39q-20 -63 -9 -141.5t50 -143.5q75 -125 211 -140h2v0zM523 -109q-13 0 -22 9t-9 21v181q0 13 9 22t22 9t22 -9t9 -22v-181q0 -12 -9 -21t-22 -9v0zM523 -109z" />
    <glyph glyph-name="shuju" unicode="&#xe640;" 
d="M382 464q-6 0 -11 -4.5t-5 -11.5v-590q0 -6 5 -11t11.5 -5t11 5t4.5 11v590q0 7 -4.5 11.5t-11.5 4.5v0zM89 220q-6 0 -11 -5t-5 -11v-346q0 -6 5 -11t11.5 -5t11 5t4.5 11v346q0 6 -4.5 11t-11.5 5v0zM968 420q-6 0 -11 -5t-5 -11v-546q0 -6 5 -11t11.5 -5t11.5 5t5 11
v546q0 6 -5 11t-12 5v0zM963 602q7 0 11.5 5t4.5 11l-1 105q0 7 -5 11.5t-12 4.5l-104 -9q-7 -1 -11.5 -6t-4 -11.5t6 -11t11.5 -3.5l64 5l-247 -272l-283 277q-11 11 -22 1l-292 -267q-12 -11 -1 -23t23 -1l280 257l284 -278q5 -5 11 -5h1q7 0 11 5l258 285l1 -64
q0 -7 5 -11.5t11 -4.5v0v0zM675 220q-6 0 -11 -4.5t-5 -11.5v-346q0 -6 5 -11t11.5 -5t11 5t4.5 11v346q0 7 -4.5 11.5t-11.5 4.5v0z" />
    <glyph glyph-name="kongjian2" unicode="&#xe67d;" 
d="M957 400q-3 10 -82 21.5t-149.5 17.5t-77.5 6q-111 279 -138 279q-12 0 -47 -71t-62.5 -137.5t-28.5 -70.5q-300 -22 -309 -45q-5 -11 51.5 -65.5t113.5 -103.5t58 -49l-41 -193q-20 -107 -11 -114q7 -6 75 30t136 76t65 39l143 -86q123 -70 134 -59q15 16 -42 263
q0 1 -28.5 -2t-82 -6.5t-102.5 -3.5q-44 -1 -96 0.5t-82 3.5l-31 2l258 191q-80 14 -141 20q-48 4 -121 7l-33 3q16 4 86 8t138 2q42 -1 89 -6t72 -10l26 -4l-257 -183q56 -9 103 -11q40 -1 89 -1t78.5 0.5l29.5 0.5l-6 33l122 107q106 96 101 111v0zM957 400z" />
    <glyph glyph-name="fenxiang2" unicode="&#xe673;" 
d="M279 207q3 2 7.5 6t19.5 15.5t30.5 22t39.5 24.5t48 25t53.5 21t58 15t60.5 4t62 -9v-138l245 252l-245 182v-142q-7 0 -18.5 0.5t-45.5 -2.5t-66 -11t-73 -27.5t-73.5 -48.5t-61 -78t-41.5 -111zM683 46h-489v391h126q27 28 60.5 46t53.5 23l21 4h-334v-537h635v239
l-73 -72v-94z" />
    <glyph glyph-name="xianhua" unicode="&#xe65f;" 
d="M896 180q-1 4 -4 6q-38 42 -92 55q-101 26 -186 -89q-19 -8 -37 -22h1q-16 -11 -38 -36v98h9q32 3 60.5 9.5t56 19.5t46 36t24.5 54q12 65 -23 137q-4 7 -12 22.5t-13.5 27.5t-8.5 23q-13 51 39 96q5 2 6 7q5 10 -7 16q-4 2 -9 1q-27 -4 -55 -11q5 41 23 63q5 6 -1 13
t-14 6q-59 -15 -103 -33q-45 41 -139 67q-2 1 -4 1q-10 2 -14 -7q-3 -4 -2 -9q10 -42 10 -84q-32 18 -68 34v0q-6 3 -13 -0.5t-7 -9.5q-1 -6 3 -10q14 -24 20 -70q10 -80 -21 -179q-35 -68 -14 -127q34 -91 191 -94v-151q-8 10 -15.5 18.5t-14.5 14.5t-11 9t-10 7t-7 5v0
q-17 14 -37 22q-84 116 -185 90q-54 -14 -93 -56q-3 -2 -3 -5q-4 -7 2 -12q96 -77 175 -72q4 1 7 1q20 3 41 10.5t32 11t27.5 -1t35.5 -19.5q43 -43 55 -60q0 -1 0.5 -1h0.5v-77v-2v13q0 -8 6 -14t14 -6t14 6t6 14v122q12 16 24 29l12 12q25 20 41.5 22.5t45 -8.5t48.5 -14
q4 -1 8 -1q79 -5 175 71q6 5 2 11v0zM215 181q79 27 150 -50q-55 19 -80 24q-55 11 -114 4q21 14 44 22v0zM305 84q-67 -7 -145 51q65 10 125 -3q22 -4 85 -26q-36 -19 -65 -22v0zM391 93l6 3q0 -1 1.5 -1.5t2.5 -0.5q-5 -1 -10 -1v0zM626 668q-7 -17 -9 -43
q-76 -23 -112 -42q-10 10 -22 20q42 36 143 65v0zM520 667q-23 -11 -61 -43q-8 5 -15 10q1 44 -4 74q50 -16 80 -41v0zM465 566q-15 -9 -45 -33t-36 -32q8 51 3 94q-2 19 -6 33q47 -25 84 -62v0zM361 278q-26 31 -18.5 72.5t29 78t49.5 60.5q88 78 238 111
q-13 -16 -17.5 -42.5t1.5 -49.5q4 -20 22 -53.5t23 -49.5q19 -62 3 -101q-16 -41 -74 -59q-64 -20 -149 -11q-77 7 -107 44v0zM805 217q23 -8 44 -22q-59 7 -114 -4q-25 -5 -80 -24q71 77 150 50v0zM619 130q1 0 2.5 1l1.5 1q2 -1 5 -3q-4 0 -9 1v0zM715 120q-29 3 -65 22
q63 22 85 26q60 13 124 3q-78 -57 -144 -51v0zM715 120z" />
    <glyph glyph-name="shanchu1" unicode="&#xe617;" 
d="M886 583h-747q-10 0 -17 7t-7 17t7 17t17 7h747q10 0 17 -7t7 -17t-7 -17t-17 -7v0zM645 679h-265q-10 0 -17 7t-7 17t7 17t17 7h265q10 0 17 -7t7 -17t-7 -17t-17 -7v0zM404 53v409q0 10 7 17t17 7t17 -7t7 -17v-409q0 -10 -7 -17.5t-17 -7.5t-17 7.5t-7 17.5v0zM573 53
v409q0 10 7 17t17 7t17 -7t7 -17v-409q0 -10 -7 -17.5t-17 -7.5t-17 7.5t-7 17.5v0zM235 510q10 0 17.5 -7t7.5 -17v-28v-92v-386q0 -20 14 -34t34 -14h409q20 0 34 14t14 34v386v92v28q0 10 7.5 17t17.5 7t17 -7t7 -17v-96v-24v-410q0 -30 -21.5 -51t-51.5 -21h-457
q-30 0 -51.5 21t-21.5 51v366v44v24v96q0 10 7 17t17 7v0zM235 510z" />
    <glyph glyph-name="shanchu2" unicode="&#xe61a;" 
d="M773 516l1 -566q0 -45 -42 -45l-432 1q-43 0 -43 43v567h-67v-567q0 -45 31.5 -76.5t76.5 -31.5h431q45 0 76.5 31.5t31.5 76.5v567h-64zM347 395v-402q0 -4 1 -7h60q1 3 1 7v401q-30 0 -62 1zM618 393v-400q0 -3 1 -6h60v6v400h-61zM891 625h-181v67q1 68 -89 68h-215
q-87 0 -87 -66v-69h-185v-66h757v66v0zM649 625h-270v47q0 11 7 19.5t19 8.5l215 -1q12 0 20 -7.5t8 -18.5l1 -48v0zM485 393v-400q0 -3 1 -6h59q1 3 1 6v400h-61z" />
    <glyph glyph-name="qq" unicode="&#xe625;" 
d="M372 -198h-69l-73 11l-52 18l-28 22l-8 13l-5 17q-1 2 -1 4v3q0 2 1 4v4q0 2 1 4l1 14q0 2 1 4l7 17l2 4l3 3v1l5 6l2 2l10 7q3 2 5 3l27 10l-16 15l-29 37l-14 24q0 2 -1 4l-8 20l-31 -33l-15 -10l-18 -6l-10 -1h-3t-5 1q-8 3 -10 8q-3 3 -4 5l-9 23l-4 37l1 36l11 52
l12 33l26 48l32 41l51 47l-2 7v4v16v4l10 30l9 17l1 15l11 31l4 6v15l7 40l14 44l20 41l38 54l31 33l32 28l33 20l64 24l71 13l61 1l46 -6l59 -14l43 -17l27 -14l33 -23l30 -27l23 -28l23 -40l28 -77l7 -32l7 -43l20 -38l10 -41v-7l-1 -7v-4v-4l-4 -17q-1 -2 -2 -3l-2 -5
l55 -93l22 -54l9 -38l5 -58l-6 -36l-14 -33l-14 -16q-2 -2 -4 -3l-6 -3q-1 0 -5 -1q-2 -1 -5 -1h-4q-2 0 -5 1t-4 1l-5 3q-1 0 -4 2t-4 3l-11 11l-17 26l-12 -29l-38 -56l35 -18l25 -20q1 0 2 -2l11 -15l7 -23q0 -4 -1 -7v-2v-4l-1 -3q-1 -3 -2 -5l-1 -1q-1 -3 -1 -4
l-18 -23l-18 -12l-39 -16l-48 -9l-69 -3l-76 8l-46 11l-54 17l-33 2l-41 -23l-46 -16l-42 -5l-12 -1h-1zM168 -111l8 -18l11 -9l31 -14l64 -12l23 -3h67l36 3l30 7l58 28l3 4q6 5 13 4l29 -3h11h4l39 -13l29 -9l85 -13l15 -1l65 2l52 12l30 14l12 13l4 4q1 4 2 5v2v4h1
l-6 14l-6 7l-19 14l-18 11l-30 15q-2 1 -4 3q-4 4 -5 11.5t3 12.5l19 21l27 41l18 45q0 2 1 3l3 6q2 3 5 6l3 1q8 6 17 1q5 -2 7 -6l35 -55l3 -2l6 4l11 19l5 21l3 21l-2 33l-10 50l-28 64l-23 44l-26 37l-0.5 1.5t-1.5 1.5q-1 3 -1 7t1 6l9 38l-3 19l-8 22l-16 29
q-2 2 -3 5v4l-9 56l-21 69l-30 54l-55 55l-33 21l-38 17l-40 11l-71 12l-55 -1l-67 -12l-36 -12l-42 -21l-25 -20l-41 -41l-36 -52l-26 -61l-11 -50l1 -18q0 -6 -4 -11l-7 -11l-5 -25v-5q0 -4 -3 -9l-9 -14l-7 -27v-11l3 -12q4 -11 -5 -17l-47 -41l-23 -26l-28 -42l-20 -51
l-11 -47v-16l1 -29l7 -30l11 4l23 19l19 30q0 4 2 6q3 6 7 8l1.5 1l1.5 1q7 3 15 -1h1q8 -4 9 -11l9 -29l29 -53l39 -39l12 -9q3 -2 6 -5q4 -6 4 -11q0 -8 -5 -13q-3 -3 -7 -4v0q-4 -1 -6 -1l-39 -9l-3 -2q-1 -1 -3 -1l-3 -2l-6 -3l-4 -5l-1 -1.5l-1 -1.5l-5 -13v-4v-6
l-1 -5v-3v-2z" />
    <glyph glyph-name="qq1" unicode="&#xe626;" 
d="M154 352l-2 6l-1 7l-1 5v5v6v6l1 7l2 7l3 8l3 8l5 9l6 9v6v6l1 8l3 9l2 9l2 5l3 4l3 4l3 4v6v7v9l2 11l1 13l4 16l4 16l4 9l3 10l4 9l4 10l5 10l5 10l5 11l8 10l3 7l4 5l8 11l8 11l9 12l9 11l11 11l11 11l14 13l8 7l10 8l11 7l11 7l11 6l13 5l13 7l13 4l13 4l14 5l14 3
l14 3l15 2l15 2l15 2l15 1h15h16h16l15 -2l16 -2l16 -1l14 -4l16 -3l15 -4l15 -4l15 -6l14 -5l15 -7l14 -7l13 -7l13 -9l11 -7l5 -5l6 -3l10 -9l9 -8l9 -9l8 -10l7 -9l8 -10l6 -10l6 -10l6 -11l6 -9l8 -20l5 -10l3 -10l3 -10l3 -10l2 -8l3 -10l5 -18l3 -15l2 -15l2 -12
l2 -18l1 -3l2 -3l6 -10l4 -6l3 -7l4 -7l4 -9l2 -8l3 -10l2 -10l1 -5v-6v-5v-5v-6l-2 -7l-3 -12l-3 -6l-2 -7v-1l1 -2l3 -5l14 -21l11 -15l5 -10l7 -11l6 -12l7 -13l7 -15l8 -17l4 -10l4 -10l4 -10l3 -10l3 -9l3 -10l3 -18l3 -18l2 -17v-9v-7v-7l-2 -8l-1 -14l-3 -13l-4 -12
l-1 -4l-3 -6l-2 -4l-3 -5l-2 -3l-4 -4l-3 -3l-3 -3l-4 -1l-3 -2l-3 -1h-2h-2l-3 1l-5 3l-2 1l-3 2l-2 3l-3 2l-5 5l-5 7l-4 8l-5 6l-4 6l-6 13l-6 12l-1 1h-1l-3 -2l-1 -4l-3 -4l-4 -12l-7 -18l-8 -20l-7 -11l-7 -11l-8 -12l-8 -12l-5 -6l-5 -6l-12 -12l1 -1l2 -1l6 -4
l25 -12l11 -6l11 -7l10 -7l9 -8l5 -4l3 -4l4 -4l3 -6l1 -4l2 -5l1 -4l1 -6l-1 -3v-4l-1 -3l-2 -4v-2l-2 -3l-5 -7l-4 -5l-3 -3l-3 -3l-7 -5l-8 -5l-8 -4l-9 -4l-11 -4l-5 -2l-5 -1l-12 -3l-12 -2l-12 -3l-13 -2l-14 -1l-14 -1h-14h-14h-15l-16 1l-15 1l-15 2l-16 2l-16 2
l-16 4l-16 3l-15 4l-16 6l-16 5l-8 2l-7 3l-5 2l-4 1h-6h-7l-15 1l-8 1l-9 1l-7 -6l-8 -5l-12 -6l-12 -7l-8 -4l-8 -3l-18 -7l-10 -2l-10 -3l-14 -3l-9 -1h-10l-9 -2h-12h-11h-11h-24h-27l-25 3l-13 2l-12 2l-13 2l-12 2l-11 4l-11 2l-10 4l-10 4l-9 4l-8 5l-7 6l-3 2l-3 4
l-3 3l-2 3l-3 3l-1 4l-3 7l-1 4l-1 4v3l1 5v4l1 4v3v6l1 4l2 5l1 6l3 6l3 2l2 3l4 6l4 3l4 2l3 3l5 2l5 2l5 3l6 2l6 1l7 2l7 1l8 1l8 1h3v0l1 1v1l-1 2l-5 3l-11 9l-8 7l-9 7l-9 9l-9 11l-11 13l-4 6l-5 7l-5 8l-4 9l-5 8l-4 10l-4 10l-4 10l-3 10l-3 13l-1 1h-1h-1h-1h-1
l-1 -1l-2 -2v-3l-1 -2l-2 -4l-5 -9l-3 -6l-4 -4l-4 -6l-5 -7l-6 -6l-6 -5l-6 -6l-6 -4l-7 -4l-7 -3l-8 -2h-7h-1h-1h-2l-2 3l-2 2l-3 7l-2 4l-2 6l-1 6l-1 5l-3 14l-1 7v8v18l1 19l2 10l2 10l1 11l3 10l4 11l3 11l4 12l5 11l6 11l5 12l7 12l8 12l8 11l8 13l7 8l9 10l10 10
l4 5l5 5l8 7l8 6l13 12l10 7zM154 352z" />
    <glyph glyph-name="jiazai1" unicode="&#xe65e;" 
d="M535 501q-48 0 -81.5 34t-33.5 81.5t33.5 81.5t81.5 34t81.5 -34t33.5 -81.5t-33.5 -81.5t-81.5 -34v0zM289.5 409q-43.5 0 -74.5 31t-31 74.5t31 74.5t74.5 31t74.5 -31t31 -74.5t-31 -74.5t-74.5 -31zM185 171q-39 0 -66 27t-27 65.5t27 66t65.5 27.5t66 -27.5
t27.5 -66t-27.5 -65.5t-65.5 -27v0zM289.5 -65q-32.5 0 -55.5 23t-23 55.5t23 55.5t55.5 23t55.5 -23t23 -55.5t-23 -55.5t-55.5 -23zM534.5 -156q-28.5 0 -48.5 20.5t-20 49t20 48.5t48.5 20t49 -20t20.5 -48.5t-20.5 -49t-49 -20.5zM784 -39q-23 0 -39 16t-16 39t16 39.5
t39 16.5t39.5 -16.5t16.5 -39.5t-16.5 -39t-39.5 -16zM886.5 218q-18.5 0 -32 13.5t-13.5 32t13.5 32t32 13.5t32 -13.5t13.5 -32t-13.5 -32t-32 -13.5zM749 511.5q0 -14.5 10.5 -25t25 -10.5t25 10.5t10.5 25t-10.5 25t-25 10.5t-25 -10.5t-10.5 -25z" />
    <glyph glyph-name="xiazai" unicode="&#xe61c;" 
d="M527 -131q-92 0 -174.5 35.5t-142.5 95.5t-95.5 143t-35.5 174t35.5 174t95.5 142.5t142.5 95t174 35.5t174 -35.5t142.5 -95t95.5 -142.5t35.5 -174t-35.5 -174t-95.5 -143t-142.5 -95.5t-173.5 -35.5v0zM527 723q-111 0 -204.5 -54.5t-148 -148t-54.5 -204t54.5 -204
t148 -148t204 -54.5t204 54.5t148 148t54.5 204t-54.5 204t-148 148t-203.5 54.5v0zM548 90q-4 -4 -8 -6.5t-6.5 -4t-6 -1.5h-5t-4.5 2.5t-4 3t-4 3.5l-3 3l-180 180q-14 14 -11 27t16 14.5t26 -9.5l149 -156v386q0 21 10.5 28.5t20.5 -1t10 -27.5v-386l150 156
q11 12 26 10.5t17.5 -13t-13.5 -29.5l-180 -180v0z" />
    <glyph glyph-name="lianjie" unicode="&#xe65a;" 
d="M228 -51q-62 0 -105 44l-2 2q-44 43 -44 105t44 106l192 192q44 44 106 44t106 -44l1 -1q44 -44 44 -106t-44 -106l-192 -192q-44 -44 -106 -44zM419 404q-46 0 -79 -33l-192 -192q-33 -33 -33 -79t33 -79l1 -1q33 -33 79 -33t79 33l192 192q33 33 33 79t-33 79l-1 1
q-33 33 -79 33zM605 326q-62 0 -106 44l-1 1q-44 44 -44 106t44 106l192 192q44 44 106 44t105 -44l2 -2q44 -43 44 -105t-44 -106l-192 -192q-44 -44 -106 -44zM796 781q-46 0 -79 -33l-192 -192q-33 -33 -33 -79t33 -79l1 -1q33 -33 79 -33t79 33l192 192q33 33 33 79
t-33 79l-1 1q-33 33 -79 33zM374 227q-8 0 -13.5 5.5t-5.5 13.5t5 13l270 269q5 6 13 6t13.5 -5.5t5.5 -13.5t-6 -13l-269 -270q-5 -5 -13 -5z" />
    <glyph glyph-name="right_line" unicode="&#xe683;" 
d="M513 -221q-103 0 -197 40.5t-162 108.5t-108.5 162t-40.5 197t40.5 197t108.5 162t162 108t197 40t197 -40t162 -108t108 -162t40 -197t-40 -197t-108 -162t-162 -108.5t-197 -40.5zM513 750q-94 0 -180 -36.5t-148 -99t-98.5 -148t-36.5 -179.5t36.5 -180t98.5 -148
t148 -98.5t180 -36.5t180 36.5t148 98.5t98.5 148t36.5 180t-36.5 179.5t-99 148t-148 99t-179.5 36.5zM437 108q-9 0 -15 6l-141 141q-7 7 -7 16t6.5 15.5t16 6.5t15.5 -7l141 -141q7 -6 7 -15t-6.5 -15.5t-16.5 -6.5v0zM437 108q-9 0 -15.5 6.5t-6.5 15.5t7 15l317 318
q7 6 16 6t15.5 -6.5t6.5 -15.5t-7 -15l-317 -318q-6 -6 -16 -6v0z" />
    <glyph glyph-name="shijian2" unicode="&#xe64d;" 
d="M874 661q-73 72 -166 110.5t-195.5 38.5t-196 -38.5t-166 -111t-111 -165.5t-38.5 -195.5t38.5 -196t111 -166t166 -111t195.5 -38.5t195.5 38.5t166.5 111.5q98 98 132.5 229.5t0 263.5t-132.5 230v0v0v0zM827 -15q-63 -63 -144.5 -96.5t-170.5 -33.5t-170 33.5
t-144 96.5t-97 144t-34 170t34 170.5t97 144t144 96.5t170 34t170.5 -34t144.5 -97q85 -85 115 -199.5t0 -229t-115 -199.5v0v0v0zM733 174l-177 102v279q0 17 -12.5 29.5t-30 12.5t-30 -12.5t-12.5 -29.5v-298q0 -18 33 -37q2 -4 19 -13l175 -107q16 -9 31 -4.5t24 20.5
q8 15 2 32t-22 26v0v0v0zM733 174z" />
    <glyph glyph-name="buxianshi01" unicode="&#xe677;" 
d="M949 176l-320 175q8 18 8 36q0 39 -29.5 68t-69.5 29q-47 0 -78 -40l-165 90q127 105 253 105q199 0 369 -253v-6q-10 -13 -41.5 -52.5t-38.5 -47.5q-9 -10 -9 -17q0 -8 6 -14.5t15 -6.5t15 7q6 5 42 49t46 59v1q17 20 2 48l-1 2q-182 273 -405 273q-148 0 -293 -125
l-159 87q-8 4 -17 1.5t-13.5 -10.5t-1.5 -17t11 -13l146 -80q-28 -27 -53 -57t-35 -43.5t-11 -17.5q-13 -24 0 -49l2 -3q199 -267 414 -267q88 0 173 44q50 26 75 47q6 5 6 15q0 9 -6.5 15t-14.5 6q-7 0 -13 -4q-50 -34 -78 -47q-70 -33 -142 -33q-193 0 -379 248q-2 4 0 9
q2 4 12 17.5t35 43t53 55.5l182 -100q-2 -9 -2 -16q0 -39 30 -68t69 -29q36 0 65 25l325 -178q8 -5 17 -2t13.5 11t1.5 16.5t-11 13.5zM538 441q22 0 39 -16.5t17 -37.5q0 -7 -2 -16l-95 52q18 18 41 18zM538 332q-20 0 -36.5 14.5t-19.5 33.5l79 -43q-12 -5 -23 -5z" />
    <glyph glyph-name="yonghu1" unicode="&#xe63b;" 
d="M526 352q-85 0 -145.5 60.5t-60.5 145.5t60.5 145t145.5 60t145 -60t60 -145t-60 -145.5t-145 -60.5zM525.5 716q-65.5 0 -111.5 -46.5t-46 -111.5t46 -111.5t111.5 -46.5t112 46.5t46.5 111.5t-46.5 111.5t-112 46.5zM901 11h-48q0 91 -45 168.5t-122 122t-168 44.5
t-168 -44.5t-122 -122t-45 -168.5h-48q0 78 30 149q30 69 83 122t121 82q71 30 149 30t149 -30q69 -29 122 -82t82 -122q30 -71 30 -149zM125 65h764v-48h-764v48z" />
    <glyph glyph-name="chevron-copy" unicode="&#xe687;" 
d="M249 362l479 -480q11 -10 25.5 -10t25 10.5t10.5 25t-10 25.5l-456 456l448 448q11 10 11 24.5t-10.5 24.5t-24.5 10t-25 -10l-465 -466q-1 0 -4 -6q-1 0 -2 -0.5t-2 -1.5q-10 -10 -10 -25t10 -25z" />
    <glyph glyph-name="shuju1" unicode="&#xe641;" 
d="M114 555q-24 0 -40.5 -16.5t-16.5 -39.5v-567q0 -24 16.5 -40.5t40 -16.5t40.5 16.5t17 40.5v567q0 23 -17 39.5t-40 16.5v0zM379 404q-24 0 -40.5 -16.5t-16.5 -39.5v-416q0 -24 16.5 -40.5t40.5 -16.5t40.5 16.5t16.5 40.5v416q0 23 -17 39.5t-40 16.5v0zM644 896
q-23 0 -40 -16.5t-17 -40.5v-907q0 -24 17 -40.5t40.5 -16.5t40 16.5t16.5 40.5v907q0 24 -16.5 40.5t-40.5 16.5v0zM909 669q-23 0 -39.5 -16.5t-16.5 -40.5v-680q0 -24 16.5 -40.5t40 -16.5t40 16.5t16.5 40.5v680q0 24 -16.5 40.5t-40.5 16.5v0z" />
    <glyph glyph-name="hongbao1" unicode="&#xe64f;" 
d="M842 600v128q0 16 -11.5 27.5t-27.5 11.5h-587q-16 0 -27.5 -11.5t-11.5 -27.5v-128q8 -7 23.5 -19.5t71.5 -45t121 -58.5q-4 -1 -12 -2t-32 -2t-48.5 2t-58.5 14t-65 30v-491q0 -10 6.5 -16.5t15.5 -6.5h621q9 0 15.5 6.5t6.5 16.5v491q-31 -18 -64.5 -29t-59.5 -13.5
t-47.5 -2.5t-33.5 2l-11 1q69 26 123 57t73 49zM510 490q46 0 79 -32.5t33 -79t-33 -79.5t-79.5 -33t-79.5 33t-33 79.5t33 79t80 32.5v0z" />
    <glyph glyph-name="wenzhang" unicode="&#xe658;" 
d="M679 797h-21h-51h-390q-25 0 -43 -17t-18 -41v-716q0 -24 18 -41t43 -17h585q25 0 43 17t18 41v569l-184 205v0zM758 606h-81v94l81 -94v0zM790 28h-560q-10 0 -10 7v693q0 7 10 7h381v-151q0 -21 14.5 -35.5t35.5 -14.5h139v-499q0 -7 -10 -7v0zM790 28zM557 544
q0 -13 -9.5 -22.5t-22.5 -9.5h-173q-13 0 -22.5 9.5t-9.5 22.5v0q0 13 9.5 22.5t22.5 9.5h173q13 0 22.5 -9.5t9.5 -22.5v0zM708 385q0 -13 -9.5 -22.5t-22.5 -9.5h-322q-13 0 -22.5 9.5t-9.5 22.5v0q0 13 9.5 22.5t22.5 9.5h322q13 0 22.5 -9.5t9.5 -22.5v0zM708 226
q0 -13 -9.5 -22.5t-22.5 -9.5h-322q-13 0 -22.5 9.5t-9.5 22.5v0q0 13 9.5 22.5t22.5 9.5h322q13 0 22.5 -9.5t9.5 -22.5v0z" />
    <glyph glyph-name="comiisgonggao" unicode="&#xe665;" 
d="M798 116q-11 0 -16 9q-3 6 -1.5 13t8.5 11q61 36 98 98q37 63 37 137t-37 137q-35 61 -96 98q-7 3 -8.5 10.5t2 13.5t11 8t13.5 -2q69 -41 109 -110q41 -72 41 -155t-42 -155q-41 -70 -111 -111q-4 -2 -8 -2v0zM704 230q-10 0 -15 9q-4 6 -2 13.5t8 10.5q32 19 51 50
q19 33 19 71t-19 70q-18 32 -49 50q-7 4 -8.5 11t2 13.5t10.5 8t14 -1.5q39 -24 62 -63q23 -41 23 -88q0 -48 -24 -88q-23 -40 -63 -63q-4 -3 -9 -3v0zM567 -10q-33 0 -68 25l-34 23q-6 5 -7.5 12t3 13t11.5 7.5t13 -3.5l34 -23q11 -8 28 -14.5t28 -3.5q4 2 6 3.5t4 10
t3 23.5v641q-1 14 -3.5 22.5t-5 10.5t-7.5 4q-11 5 -26.5 -2t-25.5 -14l-1 -1l-210 -157q-21 -18 -51 -27t-44 -10t-24 0q-34 0 -59 -22.5t-30 -56.5l-1 -12v-111l1 -12q5 -33 30 -55.5t59 -22.5h2q27 0 56.5 -9.5t40.5 -15.5t17 -10l10 -7.5t21.5 -18.5t29.5 -29t30.5 -38
t28.5 -48q3 -6 0.5 -13t-9.5 -10t-13.5 -0.5t-10.5 8.5q-15 34 -43 66.5t-41.5 43t-22.5 16.5q-45 30 -96 29v0q-47 0 -82.5 31.5t-41.5 78.5v1l-1 14v114l1 14q6 47 41.5 78.5t82.5 31.5h1q7 0 17.5 0.5t36 7.5t42.5 21v1l211 157q12 10 27 17q35 16 61 4q17 -7 25 -20
q10 -16 12 -47v-1v-642v-1q0 -17 -2 -28t-10.5 -23.5t-24.5 -17.5q-9 -3 -19 -3v0z" />
    <glyph glyph-name="x" unicode="&#xe684;" 
d="M511.5 833q-91.5 0 -174.5 -35.5t-143.5 -96t-96 -143.5t-35.5 -174.5t35.5 -175t96 -143.5t143.5 -95.5t174.5 -35.5t175 35.5t143.5 95.5t95.5 143.5t35.5 175t-35.5 174.5t-95.5 143.5t-143.5 96t-175 35.5zM511.5 -21q-109.5 0 -203 54t-147.5 147t-54 203t54 203.5
t147.5 147.5t203 54t203 -54t147.5 -147.5t54 -203.5t-54 -203t-147.5 -147t-203 -54zM703 575q-6 6 -14.5 6t-14.5 -6l-162 -163l-163 163q-6 6 -14.5 6t-14.5 -6t-6 -14.5t6 -14.5l163 -163l-163 -162q-6 -6 -6 -14.5t6 -14.5t14.5 -6t14.5 6l163 162l162 -162
q6 -6 14.5 -6t14.5 6t6 14.5t-6 14.5l-163 162l163 163q6 6 6 14.5t-6 14.5z" />
    <glyph glyph-name="chevron-copy-copy-copy-copy-copy-copy" unicode="&#xe688;" 
d="M775 406l-479 480q-11 10 -25.5 10t-25 -10.5t-10.5 -25t10 -25.5l456 -456l-448 -448q-11 -10 -11 -24.5t10.5 -24.5t24.5 -10t25 10l465 466q1 0 4 6q1 0 2 0.5t2 1.5q10 10 10 25t-10 25z" />
    <glyph glyph-name="dianhua3" unicode="&#xe60c;" 
d="M755 -58q-44 0 -102 21.5t-109 49.5q-123 66 -243 166v0l-26 19q-97 82 -192 212q-83 111 -83 179q0 38 24.5 82t45.5 65l9 9l12.5 12.5t14 13.5t17 14t18 12.5t19 11.5t19 7t19.5 3q32 0 71 -38q51 -51 64 -71l57 -76q26 -39 26 -64q0 -24 -32 -45q-16 -16 -45 -26
q-7 0 -21.5 -6.5t-16.5 -6.5q0 -6 11.5 -24t33.5 -40q43 -65 89 -102q64 -51 115 -77q19 -11 37.5 -19.5t28 -12.5t11.5 -6q7 6 19 32q2 3 5.5 10.5t5.5 12t6.5 11t8.5 11.5q17 25 58 25q32 0 76 -25q64 -32 90 -52q19 -9 83 -57q45 -36 45 -64q0 -45 -96 -109
q-2 -1 -38.5 -19t-69.5 -28.5t-65 -10.5v0zM339 218q103 -86 231 -160q128 -64 179 -64q52 0 134 51q10 6 29 22t29 23q19 19 19 25q-38 39 -109 83q-11 9 -24 16.5t-34 17t-25 11.5q-45 18 -45 19q-6 0 -6 -12q-7 -7 -19 -32q-10 -20 -20 -39q-17 -25 -51 -25v0
q-38 0 -115 44q-67 45 -115 84v0q-67 56 -103 108q-51 64 -51 96q0 24 32 45q26 13 45 19q5 3 16.5 6.5t15.5 6.5q3 3 6 4.5t5 1.5l2 1l-19 38q-10 13 -26 35.5t-26 34.5q-71 90 -96 90q-12 0 -32 -13q-32 -32 -44 -51q-29 -29 -46.5 -60t-17.5 -55q0 -53 70 -154
q57 -81 186 -198l25 -19v0zM339 218z" />
    <glyph glyph-name="jinggao" unicode="&#xe62d;" 
d="M943 169l-353 610q-32 56 -78 56t-78 -56l-353 -610q-32 -56 -9 -96t88 -40h704q65 0 88 40t-9 96zM464 605.5q19 20.5 48 20.5t48 -20t19 -51q0 -6 -6.5 -46t-15.5 -96.5t-13 -96.5h-63q-3 40 -12.5 96.5t-16.5 96.5t-7 46q0 30 19 50.5zM559.5 160.5
q-19.5 -19.5 -47.5 -19.5t-47.5 19.5t-19.5 47t19.5 47.5t47.5 20t47.5 -20t19.5 -47.5t-19.5 -47z" />
    <glyph glyph-name="shuju2" unicode="&#xe642;" 
d="M117 520l347 -239q19 -13 46 -13t46 13l347 239q19 13 19 31.5t-20 31.5l-347 239q-19 13 -46 13t-46 -13l-346 -238q-19 -13 -19 -32t19 -32zM226 575l251 167q13 9 32.5 9t33.5 -9l252 -168q13 -9 13 -22t-13 -22l-251 -167q-14 -9 -33.5 -9t-33.5 9l-251 168
q-14 9 -14 22t14 22zM795 363l-251 -167q-14 -9 -33.5 -9t-33.5 9l-251 167q-9 6 -12 13h-115q4 -13 18 -23l347 -239q19 -13 46 -13t46 13l347 238q14 10 18 24h-114q-4 -8 -12 -13zM795 195l-251 -167q-14 -9 -33.5 -9t-33.5 9l-251 167q-9 6 -12 13h-115q4 -13 18 -23
l347 -239q19 -13 46 -13t46 13l347 238q14 10 18 24h-114q-4 -8 -12 -13z" />
    <glyph glyph-name="shuju-copy" unicode="&#xe643;" 
d="M376 -11l239 347q13 19 13 46t-13 46l-239 347q-13 19 -31.5 19t-31.5 -20l-239 -347q-13 -19 -13 -46t13 -46l238 -346q13 -19 32 -19t32 19v0zM321 98l-167 251q-9 13 -9 32.5t9 33.5l168 252q9 13 22 13t22 -13l167 -251q9 -14 9 -33.5t-9 -33.5l-168 -251
q-9 -14 -22 -14t-22 14zM533 667l167 -251q9 -14 9 -33.5t-9 -33.5l-167 -251q-6 -9 -13 -12v-115q13 4 23 18l239 347q13 19 13 46t-13 46l-238 347q-10 14 -24 18v-114q8 -4 13 -12zM701 667l167 -251q9 -14 9 -33.5t-9 -33.5l-167 -251q-6 -9 -13 -12v-115q13 4 23 18
l239 347q13 19 13 46t-13 46l-238 347q-10 14 -24 18v-114q8 -4 13 -12z" />
    <glyph glyph-name="gonggao" unicode="&#xe666;" 
d="M494 751l-276 -169h-87q-27 0 -47 -19.5t-20 -47.5v-253q0 -28 20 -47.5t47 -19.5h87l276 -169q14 0 23.5 10t9.5 24v657q0 14 -9.5 24t-23.5 10v0zM494 751zM800 43q-11 0 -19.5 8.5t-8.5 20t9 19.5q80 81 108.5 189t0 216.5t-108.5 188.5q-9 9 -9 20.5t8.5 19.5t20 8
t19.5 -8q69 -68 104.5 -157t35.5 -179.5t-35.5 -179.5t-104.5 -157q-8 -9 -20 -9v0zM800 43zM674 207q-12 0 -20 8t-8 20t8 20q55 55 55 133.5t-55 133.5q-8 8 -8 19.5t8 20t19.5 8.5t20.5 -9q71 -71 71 -172.5t-71 -173.5q-9 -8 -20 -8v0zM674 207z" />
    <glyph glyph-name="xiazai1" unicode="&#xe61d;" 
d="M512 831q-91 0 -174 -35.5t-142.5 -95t-95 -142.5t-35.5 -174t35.5 -174t95 -142.5t142.5 -95t174 -35.5t174 35.5t142.5 95t95 142.5t35.5 174t-35.5 174t-95 142.5t-142.5 95t-174 35.5zM728 320l-192 -156q-9 -10 -22.5 -10t-23.5 10l-193 156q-10 11 -10 25.5
t10 25.5q12 13 23 13q9 0 23 -11l138 -110v316q0 15 9.5 25t23 10t23 -10t9.5 -25v-318l133 114q26 22 47 -1q10 -11 11 -27t-9 -27z" />
    <glyph glyph-name="daohang2" unicode="&#xe644;" 
d="M112 684q0 -22 16 -38t38.5 -16t38.5 16t16 38.5t-16 38.5t-38.5 16t-38.5 -16t-16 -39v0zM112 684zM903 648h-546q-15 0 -25.5 10.5t-10.5 25.5v0q0 15 10.5 26t25.5 11h546q15 0 25.5 -11t10.5 -26v0q0 -15 -10.5 -25.5t-25.5 -10.5v0zM903 648zM112 393q0 -22 16 -38
t38.5 -16t38.5 16t16 38.5t-16 38.5t-38.5 16t-38.5 -16t-16 -39v0zM112 393zM903 357h-546q-15 0 -25.5 10.5t-10.5 25.5v0q0 15 10.5 26t25.5 11h546q15 0 25.5 -11t10.5 -26v0q0 -15 -10.5 -25.5t-25.5 -10.5v0zM903 357zM112 102q0 -22 16 -38t38.5 -16t38.5 16t16 38.5
t-16 38.5t-38.5 16t-38.5 -16t-16 -39v0zM112 102zM903 66h-546q-15 0 -25.5 10.5t-10.5 25.5v0q0 15 10.5 26t25.5 11h546q15 0 25.5 -11t10.5 -26v0q0 -15 -10.5 -25.5t-25.5 -10.5v0zM903 66z" />
    <glyph glyph-name="shuju3" unicode="&#xe645;" 
d="M152 26v805h-87v-892h893v87h-806zM566 487l131 -131l186 186l75 -73v210h-216l78 -76l-123 -123l-131 130l-292 -292l61 -62z" />
    <glyph glyph-name="xuan" unicode="&#xe685;" 
d="M512 832q-91 0 -174 -35.5t-143 -95.5t-95.5 -143t-35.5 -174t35.5 -174t95.5 -143t143 -95.5t174 -35.5t174 35.5t143 95.5t95.5 143t35.5 174t-35.5 174t-95.5 143t-143 95.5t-174 35.5v0zM723 512l-286 -274l-134 128l-5 7.5t-3.5 14t8.5 14.5q10 5 23.5 0.5
t22.5 -11.5l9 -7l81 -58l248 186q2 2 7 5t14.5 8t14.5 5q7 -1 7 -5.5t-3 -8.5l-4 -4v0zM723 512z" />
    <glyph glyph-name="49" unicode="&#xe678;" 
d="M963 371q-8 0 -13 6q-231 305 -468 292q-68 -4 -135.5 -36.5t-112 -70.5t-85.5 -85.5t-54.5 -67.5t-19.5 -30q-3 -6 -9.5 -8t-12 1.5t-7.5 10t1 12.5q5 8 13 20t31 42.5t48 58t63.5 61.5t79 59t93 43t105.5 22q253 15 495 -305q10 -13 -3 -22q-4 -3 -9 -3zM963 371
q-8 0 -13 6q-231 305 -468 292q-68 -4 -135.5 -36.5t-112 -70.5t-85.5 -85.5t-54.5 -67.5t-19.5 -30q-3 -6 -9.5 -8t-12 1.5t-7.5 10t1 12.5q5 8 13 20t31 42.5t48 58t63.5 61.5t79 59t93 43t105.5 22q253 15 495 -305q10 -13 -3 -22q-4 -3 -9 -3zM503 67h-23
q-53 4 -105.5 22.5t-93 43t-79 58.5t-63.5 61.5t-48 58t-31 42.5t-13 20q-3 6 -1 12.5t7.5 10t12 1.5t9.5 -7q6 -11 19.5 -31t54.5 -67.5t85.5 -85.5t112 -70.5t135.5 -36.5q237 -13 468 292q10 13 22.5 3.5t2.5 -22.5q-231 -305 -472 -305zM503 67h-23q-53 4 -105.5 22.5
t-93 43t-79 58.5t-63.5 61.5t-48 58t-31 42.5t-13 20q-3 6 -1 12.5t7.5 10t12 1.5t9.5 -7q6 -11 19.5 -31t54.5 -67.5t85.5 -85.5t112 -70.5t135.5 -36.5q237 -13 468 292q10 13 22.5 3.5t2.5 -22.5q-231 -305 -472 -305zM512 225q-67 0 -114 47.5t-47 114t47 114t114 47.5
t114 -47.5t47 -114t-47 -114t-114 -47.5zM511.5 516q-53.5 0 -91 -38t-37.5 -91.5t37.5 -91.5t91 -38t91.5 38t38 91.5t-38 91.5t-91.5 38z" />
    <glyph glyph-name="tishikuangjingshi" unicode="&#xe630;" 
d="M512 -128q-104 0 -199 40.5t-163.5 109t-109 163.5t-40.5 199q0 139 68.5 257t186.5 186.5t257 68.5t257 -68.5t186.5 -186.5t68.5 -257q0 -104 -40.5 -199t-109 -163.5t-163.5 -109t-199 -40.5zM512 845q-94 0 -179 -36.5t-147 -98.5t-98.5 -147t-36.5 -179t36.5 -179
t98.5 -147t147 -98.5t179 -36.5t179 36.5t147 98.5t98.5 147t36.5 179t-36.5 179t-98.5 147t-147 98.5t-179 36.5zM478 162h68v-85h-68v85zM478 691h68v-461h-68v461z" />
    <glyph glyph-name="xiangji1" unicode="&#xe609;" 
d="M813.5 446q-17.5 0 -29.5 12t-12 29t12 29t29.5 12t30 -12t12.5 -29t-12.5 -29t-30 -12zM521.5 140q-77.5 0 -132.5 54t-55 130t55 130t132.5 54t132.5 -54t55 -130t-55 -130t-132.5 -54zM521.5 474q-63.5 0 -108 -44t-44.5 -106t44.5 -106t108 -44t108.5 44t45 106
t-45 106t-108.5 44zM670 680q10 0 17.5 -7t7.5 -17v-24v-34h34h192q11 0 18 -7t7 -17v-478q0 -10 -7 -17t-18 -7h-802q-10 0 -17.5 7t-7.5 17v478q0 10 7.5 17t17.5 7h192h35v34v24q0 10 7 17t17 7h300zM670 714h-300q-25 0 -42 -17t-17 -41v-24h-192q-25 0 -42.5 -17
t-17.5 -41v-478q0 -24 17.5 -41t42.5 -17h802q25 0 42.5 17t17.5 41v478q0 24 -17.5 41t-42.5 17h-192v24q0 24 -17 41t-42 17v0z" />
    <glyph glyph-name="hua1" unicode="&#xe660;" 
d="M779 666q-8 29 -27.5 47t-41 24t-42.5 7.5t-34.5 -0.5l-13.5 -2q-1 5 -2 13.5t-9.5 30t-20.5 38.5t-37 30.5t-58 14t-57.5 -12.5t-37 -31.5t-20 -37.5t-9.5 -32l-1 -13q-6 1 -15.5 2.5t-35.5 0t-46.5 -8.5t-40 -27.5t-25.5 -52.5t0.5 -59.5t19 -44t27 -28.5t23.5 -17
t11 -5q-3 -4 -6.5 -11t-9 -28t-5.5 -41t11 -46t34.5 -47t50.5 -26t51 4t40 18.5t30 21.5l-4 -218q-39 100 -88 127q-32 18 -69.5 27.5t-60 10t-21.5 -0.5q0 -4 0.5 -11.5t3.5 -29.5t9 -42.5t18.5 -46.5t30.5 -46q54 -61 175 -64l-3 -125q0 -6 5.5 -10t13.5 -4t13.5 4t5.5 10
l-3 126q121 2 175 64q27 31 42.5 75t17.5 72l1 28q0 1 -21 0t-59 -10t-71 -27q-48 -27 -87 -126l-4 219q12 -12 27.5 -21.5t39 -19t51.5 -4.5t54 25q25 20 36 45t10.5 44.5t-8 40.5t-12.5 28.5t-9 12.5v1q2 0 13 4t29.5 15t31.5 30t20 47.5t-6 68.5zM489 458q-47 0 -80.5 33
t-33.5 80t33.5 80.5t80.5 33.5t80 -33.5t33 -80.5t-33 -80t-80 -33z" />
    <glyph glyph-name="huakong" unicode="&#xe661;" 
d="M794 664q-8 29 -27.5 47t-41 24t-42.5 7.5t-34.5 0t-13.5 -2.5q-1 5 -2 13.5t-9.5 30t-20.5 38.5t-37.5 30.5t-58 14t-57 -12t-37 -31.5t-20 -37.5t-9.5 -32.5l-1 -13q-6 1 -16 2.5t-35.5 0t-46 -8.5t-40 -27.5t-25.5 -52.5t0.5 -59.5t19 -44t27 -28.5t23.5 -17t10 -5
l-5.5 -11t-9 -28t-5.5 -41t11 -46t34.5 -47t50.5 -26t51 4t40 18.5t30 21.5l-5 -218q-39 100 -87 127q-32 19 -70 28t-60 9.5t-21 -0.5q0 -4 0.5 -11.5t3.5 -29.5t9 -42.5t18.5 -46.5t30.5 -46q54 -61 175 -64l-3 -125q0 -6 5.5 -10t13.5 -4t13.5 4t5.5 10l-3 126
q121 2 175 64q17 20 30 46t18.5 46t9 42t3.5 29.5v11.5q0 1 -21 0.5t-59 -10t-71 -27.5q-48 -27 -87 -126l-4 219q12 -12 27 -21.5t39 -19t52 -4.5t54 25q25 20 36 45t10.5 44.5t-8 40.5t-12.5 28.5l-9 13.5v0v0q3 0 6 1t11.5 5t16 8t17.5 12t18 16.5t14.5 21.5t9.5 27.5
t2 33.5t-7 40zM482 84h-11.5t-26.5 3t-38 9t-39.5 19t-35.5 32q-23 29 -34.5 58t-11.5 43l-1 14q8 -1 20.5 -3t43.5 -14t53 -30t42 -51t29.5 -55.5t9.5 -24.5zM730 260q0 -9 -2 -22.5t-16.5 -46.5t-40 -55.5t-63 -37t-52.5 -17t-25 -3.5v0q3 10 9 26t27 52.5t45 57.5
q24 19 53 30.5t47 13.5zM649 517q3 -5 8.5 -12.5t16 -29t15.5 -40.5t1 -41.5t-22 -36.5t-41 -14.5t-43 9.5t-37.5 22t-27.5 22l-11 10l-11 -11t-27 -23t-39 -25t-42.5 -8t-41 18t-24 39.5t-3.5 43t9 38t12 27.5l6 11q-3 1 -9.5 3.5t-22 12.5t-27.5 22t-21.5 32t-8.5 44
q1 29 16 47t36.5 23.5t42.5 6.5t36 -2l15 -2q0 5 1 13.5t8 30t16.5 38t29.5 30.5t45.5 15.5t45 -13t29 -36t15.5 -43.5t7 -37l2 -15q3 1 7.5 3t19 6.5t27.5 7t30 1.5t30.5 -6.5t24.5 -19.5t16 -36q6 -31 -3 -54.5t-26 -36.5t-35 -21t-32 -11zM504 675q-47 0 -80.5 -33
t-33.5 -80t33.5 -80t80.5 -33t80 33t33 80t-33 80t-80 33zM504 485q-32 0 -54.5 22.5t-22.5 54.5t22.5 54.5t54.5 22.5t54.5 -22.5t22.5 -54.5t-22.5 -54.5t-54.5 -22.5z" />
    <glyph glyph-name="shangchuan1" unicode="&#xe61e;" 
d="M512 831q-91 0 -174.5 -35t-143.5 -95t-96 -143t-36 -174t36 -174t96 -143t143.5 -95t174.5 -35t174.5 35t143.5 95t96 143t36 174t-36 174t-96 143t-143.5 95t-174.5 35zM512 -8q-106 0 -196.5 52.5t-143 143t-52.5 196.5t52.5 196.5t143 143t196.5 52.5t196.5 -52.5
t143 -143t52.5 -196.5t-52.5 -196.5t-143 -143t-196.5 -52.5zM676 443l-142 142l-1 1q-9 9 -21 9v0v0v0q-12 0 -21 -9v0l-1 -1l-142 -142q-9 -9 -9 -21t9 -20v0q8 -9 20.5 -9t20.5 9l94 94v-337q0 -12 8.5 -20.5t20.5 -8.5v0q12 0 20.5 8.5t8.5 20.5v337l94 -94
q8 -9 20.5 -9t20.5 9v0q9 8 9 20t-9 21z" />
    <glyph glyph-name="jiantou-copy" unicode="&#xe689;" 
d="M703 -62l64 63l-381 384l384 380l-63 64l-449 -444z" />
    <glyph glyph-name="xianhualipin" unicode="&#xe662;" 
d="M527 -36q0 -7 -4.5 -12.5t-10.5 -5.5q-8 0 -17 5.5t-9 12.5l-2 81q-10 14 -19 26q-4 6 -10 12q-19 18 -32 20t-35 -8t-38 -13q-4 -1 -6 -1q-62 -5 -137 65q-4 4 -2 10v0q1 3 3 5q30 38 73 51q78 24 145 -81q14 -8 28 -20v0q13 -11 30 -34v166q0 15 10 21t20 -0.5
t10 -21.5v0v0l1 -116q26 40 45 56v0q14 13 29 21q65 106 144 82q43 -12 73 -51q2 -2 3 -5q2 -6 -2 -10q-75 -71 -137 -66h-6q-14 3 -31 10t-25.5 10t-21 -1t-27.5 -18l-10 -12q-18 -24 -33 -50l-0.5 -0.5l-0.5 -0.5zM610 822q-8 -21 -11 -54q-95 -28 -140 -52q-12 13 -27 25
q52 44 178 81v0v0v0zM435 707q-20 -12 -57 -41.5t-45 -38.5q10 63 4 116q-3 24 -8 41q59 -31 106 -77v0v0v0zM292 357q-32 38 -23 89.5t36.5 97t61.5 75.5q110 98 298 139q-16 -21 -21.5 -54t1.5 -61q6 -24 28.5 -66t28.5 -62q24 -77 5 -125q-21 -52 -93 -74
q-81 -25 -188 -14q-95 9 -134 55v0v0v0zM292 357z" />
    <glyph glyph-name="cross-ivt" unicode="&#xe686;" 
d="M876 513q-31 75 -89 133t-134 90q-77 33 -162.5 33t-163.5 -33q-75 -32 -133 -90t-90 -133q-33 -78 -33 -163t33 -163q32 -75 90 -133t133 -90q78 -33 163.5 -33t162.5 33q76 32 134 90t89 133q33 78 33 163t-33 163zM716 167l-43 -43l-183 182l-183 -183l-44 43l184 184
l-184 184l44 43l183 -184l184 184l44 -43l-184 -184z" />
    <glyph glyph-name="jiantou-copy1" unicode="&#xe6c2;" 
d="M343 831l-69 -68l380 -380l-380 -379l69 -69l438 438v20z" />
    <glyph glyph-name="shuju4" unicode="&#xe646;" 
d="M786 238l-241 -128q-13 -7 -31.5 -7t-31.5 7l-242 128q-8 5 -11 10h-110q3 -10 17 -18l333 -182q18 -10 44 -10t44 10l333 182q14 8 17 18h-109q-3 -6 -12 -10zM786 366l-241 -127q-13 -7 -31.5 -7t-31.5 7l-242 128q-8 4 -11 10h-110q3 -11 17 -18l333 -183
q18 -10 44 -10t44 10l333 182q14 8 17 19h-109q-3 -6 -12 -11zM136 487l333 -183q18 -10 44 -10t44 10l333 182q18 10 18 24.5t-18 24.5l-334 183q-18 10 -43.5 10t-44.5 -10l-332 -183q-19 -10 -18.5 -24t18.5 -24z" />
    <glyph glyph-name="xiazai2" unicode="&#xe61f;" 
d="M505 880q-102 0 -195 -40t-160.5 -107.5t-107.5 -160.5t-40 -195.5t40 -195.5t107.5 -160.5t160.5 -107t195 -39.5t195.5 39.5t160.5 107t107 160.5t40 195.5t-40 195.5t-107 160.5t-160.5 107.5t-195.5 40zM505 -76q-92 0 -176 36t-144.5 96.5t-96 144t-35.5 176
t35.5 176t96 144.5t144.5 96.5t176 35.5t176 -35.5t144.5 -96.5t96.5 -144.5t36 -176t-36 -176t-96.5 -144t-144.5 -96.5t-176 -36zM683 412l-153 -153v369h-50v-369l-153 153l-35 -35l178 -178v0l35 -36l36 36v0l178 178z" />
    <glyph glyph-name="dianhua4" unicode="&#xe60d;" 
d="M518 738q14 13 26.5 16.5t42.5 3.5t49 -6q6 -2 6 -24q2 -35 -9.5 -78.5t-31.5 -71.5q-9 -8 -14 -11q-6 -2 -20.5 -3.5t-25 -6t-30.5 -28.5t-43 -67q-61 -111 -61 -164q0 -21 12 -35.5t13 -24.5q0 -23 -14 -50q-19 -38 -46.5 -69t-49.5 -31q-7 -1 -19.5 3.5t-16.5 4.5
q-7 -3 -9.5 -9.5t-3.5 -17t-1 -12.5q-1 -44 37 -76.5t92.5 -45.5t111.5 -11q69 4 135.5 25t125 61t103 94.5t71 128.5t27.5 159q0 60 -17 120t-54 118.5t-89.5 104t-131 75t-170.5 33.5q-58 4 -120.5 -13t-123 -54.5t-108.5 -90.5t-78 -129.5t-31 -163.5q-4 -173 125 -321
q-24 -16 -50.5 5.5t-44.5 53.5q-85 132 -79 262q2 110 46.5 206.5t116 161t161.5 100.5t182 33q101 -2 187 -35t145.5 -84.5t101.5 -116.5t61.5 -132.5t19.5 -132.5q-1 -100 -32 -186.5t-83 -146.5t-120 -102.5t-142 -62.5t-149 -19q-69 0 -129 18.5t-100 58.5t-40 94
q0 20 5 33.5t23 43.5l-6 12q-6 4 -8 10.5t-2 13t-1 9.5q-2 72 39.5 187.5t107.5 216.5q31 51 69 99.5t62 66.5v0zM349 71q45 -27 66 -27q26 4 60 52t34 72q0 10 -5 18.5t-11 14t-18 14t-18 14.5q-18 -62 -43 -96.5t-65 -61.5v0zM620 558q25 -11 58 -11q20 3 30 17q2 5 12 27
t15 38.5t6 30.5q0 3 0.5 8.5t0.5 9.5t-0.5 8.5t-2.5 7.5q-6 9 -23.5 23t-37.5 21q-2 -56 -15 -94t-43 -86v0z" />
    <glyph glyph-name="lianjie1" unicode="&#xe65b;" 
d="M914 783q-51 51 -124 51t-124 -51l-249 -250q-51 -51 -51 -123.5t51 -124.5q39 -38 93 -48h5q11 0 19.5 7t10.5 17q2 13 -5.5 23t-19.5 12q-35 6 -61 32q-33 33 -33 81t33 82l16 15q0 -1 -1 -3q-1 -12 6.5 -22t20.5 -11q39 -5 67 -33q34 -34 34 -81.5t-34 -81.5
l-249 -249q-34 -34 -82 -34t-81.5 33.5t-33.5 81.5t34 81l169 170q9 9 9 21t-8.5 21t-21 9t-21.5 -9l-170 -169q-51 -51 -51 -124t51.5 -124t124 -51t123.5 51l250 250q51 51 51 123.5t-51 123.5q-43 43 -103 50q-6 1 -11 0l212 211q33 34 81 34t81.5 -33.5t33.5 -81.5
t-34 -81l-150 -151q-8 -8 -8 -20.5t8.5 -21.5t21 -9t21.5 9l150 150q51 51 51 124t-51 124z" />
    <glyph glyph-name="bianji2" unicode="&#xe614;" 
d="M584 851h-437q-43 0 -73 -30t-30 -73v-719q0 -43 30 -73t73 -30h719q43 0 73 30t30 73v488h-51v-437q0 -42 -30 -72.5t-73 -30.5h-617q-42 0 -72.5 30.5t-30.5 72.5v617q0 43 30.5 73t72.5 30h386v51v0zM296 227l623 623l36 -36l-623 -623z" />
    <glyph glyph-name="xianshi" unicode="&#xe679;" 
d="M512 691q-69 0 -133 -20t-127.5 -63t-121 -95t-130.5 -129q5 -5 15 -16q42 -44 63.5 -66t60.5 -59t65 -56t65.5 -44t74 -37t78.5 -20.5t90 -8.5t92 10.5t83 25.5t79 41.5t70 47.5t66 56.5t57 55t53 54.5q8 9 12 13q-41 49 -77.5 87t-88.5 82t-102.5 73t-114.5 48.5
t-129 19.5zM512 179q-85 0 -145 60t-60 145t60 145t145 60t145 -60t60 -145t-60 -145t-145 -60zM512 384zM375 384q0 57 40 97t97 40t97 -40t40 -97t-40 -97t-97 -40t-97 40t-40 97z" />
    <glyph glyph-name="hongbao2" unicode="&#xe650;" 
d="M896 762v0q0 13 -4 28l-3 11q-4 9 -9 17l-368 -211v2l-360 220q-24 -29 -24 -67v-756q0 -42 28.5 -72t69.5 -30h285h1h286q41 0 69.5 30t28.5 72v297v459v0v0zM639 230q10 0 16.5 -7t6.5 -16.5t-6.5 -16t-16.5 -6.5v-1h-102v-54v0q0 -9 -6.5 -16t-15.5 -7t-15.5 7
t-6.5 16v0v54l-106 1v0q-9 0 -15.5 6.5t-6.5 16t6.5 16.5t15.5 7v0h106v46l-106 1v0q-9 0 -15.5 6.5t-6.5 16t6.5 16.5t15.5 7v0h106v1l-105 125v1q-7 6 -7.5 15.5t5.5 16.5t15 7.5t16 -5.5l96 -118l94 113q7 6 16 5.5t15 -7.5t5.5 -16.5t-6.5 -15.5v-1l-100 -121h102
q10 0 16.5 -7t6.5 -16.5t-6.5 -16t-16.5 -6.5v-1h-102v-46h102v0zM513 659l333 189q-24 16 -53 16h-280h-1h-285q-19 0 -36 -8l321 -197v0v0l1 -1v1v0z" />
    <glyph glyph-name="yonghu-copy" unicode="&#xe63c;" 
d="M512 208q-92 0 -157.5 65.5t-65.5 158.5t65.5 158.5t157.5 65.5t157.5 -65.5t65.5 -158.5t-65.5 -158.5t-157.5 -65.5zM512 630q-82 0 -139.5 -58t-57.5 -140t57.5 -140t139.5 -58t139.5 58t57.5 140t-57.5 140t-139.5 58zM876 -109h-728q-6 0 -9.5 4t-3.5 9l-1 5
q0 85 51 157.5t138 114.5t189 42t189 -42t138 -114.5t51 -157.5v-3q-1 -6 -4.5 -10.5t-9.5 -4.5zM160 -83h703q-3 77 -50.5 141.5t-127.5 101.5t-173 37q-94 0 -174 -37.5t-127.5 -101.5t-50.5 -141z" />
    <glyph glyph-name="daohang-copy" unicode="&#xe647;" 
d="M80 154h898v-70h-898v70zM80 420h898v-69h-898v69zM80 686h898v-69h-898v69z" />
    <glyph glyph-name="edit" unicode="&#xe615;" 
d="M868 14q0 -5 -3.5 -8.5t-7.5 -3.5h-738q-5 0 -8.5 3.5t-3.5 8.5v730q0 5 3.5 8t8.5 3h540v42h-568q-10 0 -17.5 -7.5t-7.5 -17.5v-786q0 -10 7.5 -17.5t17.5 -7.5h792q11 0 18 7.5t7 17.5v443h-40v-415zM963 648q-2 22 -20 38l-34 36l-40 38q-14 12 -30 14t-26.5 -2.5
t-18.5 -11.5v0l-73 -74l-339 -339v0l-1 -1l-1 -1l1 -1l-94 -240l243 88l1 -1l1 2h1v1l414 414q17 18 16 40zM340 156l64 164l102 -104zM531 235l-108 110l309 308l108 -108zM924 629l-62 -62l-109 108l62 62q5 4 11 6q12 4 22 -6l39 -37l34 -36l1 -1q9 -8 10 -17
q0 -8 -8 -17z" />
    <glyph glyph-name="bianji3" unicode="&#xe616;" 
d="M908.5 404q-8.5 0 -14 -6t-5.5 -14v-339q0 -29 -20.5 -49.5t-49.5 -20.5h-616q-29 0 -49.5 20.5t-20.5 49.5v677q0 29 20.5 49.5t49.5 20.5h362q8 0 14 5.5t6 14t-6 14.5t-14 6h-362q-46 0 -78 -32.5t-32 -77.5v-677q0 -45 32 -77.5t78 -32.5h616q45 0 77.5 32.5
t32.5 77.5v339q0 8 -6 14t-14.5 6zM943 778l-36 35q-17 18 -42 18t-43 -18l-422 -422q-2 -2 -3 -4l-128 -227q-7 -14 4 -25q6 -5 14 -5q5 0 10 3l220 135q2 1 3 3l423 422q17 18 17 42.5t-17 42.5zM419 344l55 -55l-132 -82zM914 721l-408 -408l-64 64l409 408q5 6 13.5 6
t14.5 -6l35 -35q6 -6 6 -14.5t-6 -14.5z" />
    <glyph glyph-name="hua2" unicode="&#xe664;" 
d="M412 -6q-13 0 -22 10q-22 24 -51.5 42t-53.5 26.5t-49.5 13t-35.5 5t-15 0.5h-1q-12 0 -20.5 9t-8.5 21t8.5 21t20.5 9q5 0 19 -0.5t44 -6.5t59.5 -16t65 -32t62.5 -52q8 -10 7.5 -22t-9.5 -20t-20 -8v0zM612 -6q-12 0 -21 8t-9.5 20.5t8.5 21.5q28 30 63.5 52t65 32
t59.5 16t43 6.5t19 0.5q12 0 20.5 -9t8.5 -21t-8.5 -21t-21.5 -9v0v0q-5 0 -14.5 -0.5t-35 -5t-49.5 -13t-54 -26.5t-53 -43q-8 -9 -21 -9v0zM559 145h-94q-5 0 -9 2q-75 9 -137.5 51.5t-103.5 113.5q-48 81 -58 178t21 172q8 18 27 19h9q85 0 158 -32q52 96 118 144
q4 3 8 5v0q15 6 29 -3q1 -1 4 -3q65 -48 117 -145q74 34 162 34h9q19 -1 27 -19q31 -75 21 -172t-58 -178q-41 -71 -103.5 -113.5t-137.5 -51.5q-4 -2 -9 -2v0zM512 -32q-13 0 -21.5 8.5t-8.5 21.5v177q0 12 8.5 21t21 9t21 -9t8.5 -21v-177q0 -13 -8.5 -21.5t-20.5 -8.5v0z
M512 -32z" />
    <glyph glyph-name="tongjishuju" unicode="&#xe648;" 
d="M640 896h-128v-896h128v896zM832 640h-128v-640h128v640zM448 192h-128v-192h128v192zM64 896h-64v-1024h1024v64h-960v960zM256 512h-128v-512h128v512zM896 384v-384h128v384h-128z" />
    <glyph glyph-name="jinrongye" unicode="&#xe651;" 
d="M494 842q2 0 5 2q7 5 18 16q13 12 26.5 17.5t35.5 -3.5q11 -3 17 -9q8 -7 13 -12q6 -5 13 -9t18 -4t19 3t15 6t14.5 4t16.5 -2q11 -4 15 -12.5t2.5 -17.5t-7.5 -17.5t-15 -14.5q-21 -13 -32 -27t-22 -29q-6 -8 -12.5 -18t-11.5 -20q-7 -12 -15 -23h-228q-8 13 -15 26
q-7 11 -14.5 22t-13.5 20q-11 16 -24.5 28.5t-27.5 22.5t-19.5 27t9.5 30q8 5 18 4t21 -4q10 -3 21 -7q11 -3 20 -1q15 3 23 11.5t26 20.5q15 9 32.5 6t26.5 -12q4 -5 9 -9t11 -7q5 -5 12 -8v0v0zM618 622q14 -18 33 -39q17 -19 41 -42.5t56 -50.5q27 -23 55 -54.5t49 -73
t29.5 -96.5t-2.5 -122q-10 -55 -39.5 -104t-78 -85.5t-115 -58t-151.5 -21.5q-87 0 -154.5 25t-114 64.5t-74.5 88.5t-36 98q-10 54 -3 103.5t26 93t47 80t61 65.5q29 25 52 47.5t38 41.5q19 21 33 40h248v0v0zM497 282l-30 30l-23 23q-11 11 -15 17q-9 7 -23.5 12t-24.5 -6
q-9 -12 -4.5 -23.5t10.5 -17.5l16 -16q12 -13 27 -29q16 -17 36 -37l-1 -23h-75q-10 0 -17 -8t-7 -16.5t6.5 -15.5t17.5 -7h75v-38h-75q-10 0 -17 -6t-7 -16q-1 -9 6 -15t18 -6h75v-22q1 -16 10 -22t22 -6q13 -1 21.5 8.5t8.5 19.5v22h77q11 0 18 5t6 16q0 23 -31 23h-70
l1 37l72 2q15 -2 21.5 5.5t6.5 17.5q0 9 -7 16t-23 7h-71v21q18 17 34 34q13 13 26.5 27t19.5 19q26 22 11 39q-7 10 -19.5 10t-22.5 -9q-5 -4 -18.5 -16t-26.5 -24q-16 -15 -34 -32v0v0zM497 282z" />
    <glyph glyph-name="kongjian-copy" unicode="&#xe67e;" 
d="M845 477l-208 20q-12 1 -16 4t-8 13l-89 193q-6 12 -15 12t-15 -12l-94 -193q-6 -8 -10 -11t-16 -4l-201 -22q-14 -1 -16.5 -9t7.5 -17l158 -142q8 -8 5 -19l-40 -209q-3 -13 4 -17.5t19 1.5l180 102q19 12 37 1l181 -103q12 -6 19 -1.5t4 17.5l-31 167q33 10 47 22
l-4 -1q-101 -24 -234 -24q-44 0 -87 3h-1q-38 3 -70 7q-8 2 0 7l218 151q5 4 0 4q-113 17 -281 17h-7q100 23 228 23q74 0 143 -8q25 -4 37 -6q8 -1 1 -6l-218 -148q-5 -3 1 -3q86 -12 223 -14l-3 18q-2 12 8 21l153 140q10 10 7.5 17.5t-16.5 8.5zM509.5 895
q-102.5 0 -196 -40t-161 -107.5t-107.5 -161t-40 -196t40 -196t107.5 -161t161 -107.5t196 -40t195.5 40t161 107.5t108 161t40 196t-40 196t-108 161t-161 107.5t-195.5 40zM509 -97q-99 0 -189 39t-155.5 104t-104 155.5t-38.5 189t38.5 189t104 155.5t155.5 103.5
t189 38.5t189 -38.5t155.5 -103.5t104 -155.5t38.5 -189t-38.5 -189t-104 -155.5t-155.5 -104t-189 -39z" />
    <glyph glyph-name="zhengque-copy" unicode="&#xe60f;" 
d="M687 515l-226 -230l-125 125q-9 8 -20.5 8t-19.5 -8.5t-8 -20t8 -19.5l145 -145q8 -8 20 -8v0q12 0 20 8l245 251q9 9 8.5 20.5t-8.5 19.5t-19.5 8t-19.5 -9zM511.5 831q-90.5 0 -173.5 -35.5t-142.5 -95.5t-95 -142.5t-35.5 -173t35.5 -173.5t95 -142.5t142.5 -95
t173.5 -35.5t173 35.5t142.5 95t95.5 142.5t35.5 173.5t-35.5 173t-95.5 142.5t-142.5 95.5t-173 35.5zM511 -6q-106 0 -196 52t-142 142t-52 196t52 196t142 142.5t196 52.5t196 -52.5t142.5 -142.5t52.5 -196t-52.5 -196t-142.5 -142t-196 -52z" />
    <glyph glyph-name="guanbi-copy" unicode="&#xe610;" 
d="M511.5 831q-90.5 0 -173.5 -35.5t-142.5 -95.5t-95 -142.5t-35.5 -173t35.5 -173.5t95 -142.5t142.5 -95t173.5 -35.5t173 35.5t142.5 95t95.5 142.5t35.5 173.5t-35.5 173t-95.5 142.5t-142.5 95.5t-173 35.5zM511 -6q-106 0 -196 52t-142 142t-52 196t52 196t142 142.5
t196 52.5t196 -52.5t142.5 -142.5t52.5 -196t-52.5 -196t-142.5 -142t-196 -52zM670.5 543.5q-8.5 8.5 -20 8.5t-19.5 -8l-120 -120l-120 120q-8 8 -19.5 8t-19.5 -8.5t-8 -20t8 -19.5l120 -120l-120 -119q-8 -9 -8 -20.5t8 -19.5t19.5 -8t19.5 8l120 120l120 -120
q8 -8 19.5 -8t20 8t8.5 19.5t-9 20.5l-119 119l119 120q9 8 9 19.5t-8.5 20z" />
    <glyph glyph-name="jinru-copy" unicode="&#xe611;" 
d="M511 831q-91 0 -173.5 -35.5t-142 -95.5t-95 -142.5t-35.5 -173t35.5 -173.5t95 -142.5t142 -95t173.5 -35.5t173.5 35.5t142.5 95t95.5 142.5t35.5 173.5t-35.5 173t-95.5 142.5t-142.5 95.5t-173.5 35.5zM511 -6q-106 0 -196 52t-142.5 142t-52.5 196t52.5 196
t142.5 142.5t196 52.5t196 -52.5t142.5 -142.5t52.5 -196t-52.5 -196t-142.5 -142t-196 -52zM587 572q-9 8 -20.5 8t-19.5 -8.5t-8 -20t8 -19.5l120 -120h-379q-12 0 -20 -8t-8 -19.5t8 -20t20 -8.5h379l-120 -119q-8 -8 -8 -20t8 -20t19.5 -8t20.5 8l167 168q8 8 8 19.5
t-8 19.5z" />
    <glyph glyph-name="fanhui-copy" unicode="&#xe612;" 
d="M511 830q-91 0 -173.5 -35t-142.5 -95t-95 -142.5t-35 -173.5t35 -173.5t95 -142.5t142.5 -95t173.5 -35t173.5 35t142.5 95t95.5 142.5t35.5 173.5t-35.5 173.5t-95.5 142.5t-142.5 95t-173.5 35zM511 -7q-106 0 -196 52.5t-142.5 142.5t-52.5 196t52.5 196t142.5 142.5
t196 52.5t196 -52.5t142.5 -142.5t52.5 -196t-52.5 -196t-142.5 -142.5t-196 -52.5zM734 412h-379l120 120q8 8 8 19.5t-8 19.5t-19.5 8t-19.5 -8l-168 -167q-8 -8 -8 -19.5t8 -20.5l168 -167q8 -8 19.5 -8t19.5 8t8 19.5t-8 19.5l-120 120h379q12 0 20 8.5t8 20t-8 19.5
t-20 8z" />
    <glyph glyph-name="wenhao" unicode="&#xe67f;" 
d="M512 -128q-104 0 -199 40.5t-163.5 109t-109 163.5t-40.5 199t40.5 199t109 163.5t163.5 109t199 40.5t199 -40.5t163.5 -109t109 -163.5t40.5 -199t-40.5 -199t-109 -163.5t-163.5 -109t-199 -40.5zM512 847q-94 0 -180 -36.5t-148 -98.5t-98.5 -148t-36.5 -180
t36.5 -180t98.5 -148t148 -98.5t180 -36.5t180 36.5t148 98.5t98.5 148t36.5 180t-36.5 180t-98.5 148t-148 98.5t-180 36.5zM481 229q-1 12 -1 18q0 36 11 63q7 20 24 40q13 15 45 43.5t41.5 45t9.5 36.5q0 36 -28 63.5t-69 27.5q-40 0 -66.5 -25t-34.5 -77l-64 7
q9 71 51.5 108.5t112.5 37.5q74 0 118 -40.5t44 -97.5q0 -33 -15.5 -60.5t-60.5 -67.5q-31 -27 -40 -40t-13.5 -29t-5.5 -53h-59v0zM477 105v70h70v-70h-70z" />
    <glyph glyph-name="shuju5" unicode="&#xe649;" 
d="M96 -109h83v256h-83v-256v0zM352 -109h83v378h-83v-378v0zM640 -109h83v474h-83v-474v0zM909 -109h77v615h-77v-615v0zM960 608l58 269l-314 -64l96 -77l-269 -237l-134 103l-391 -346l58 -45v0l333 295l134 -103l327 288l102 -83v0zM960 608z" />
    <glyph glyph-name="xiangshangfanye" unicode="&#xe618;" 
d="M472 624l-399 -400q-17 -16 -17 -39.5t16.5 -40t40 -16.5t40.5 16l359 360l359 -360q17 -16 40.5 -16t40 16.5t16.5 40t-17 39.5l-399 400q-17 16 -40 16t-40 -16z" />
    <glyph glyph-name="xiangxiafanye" unicode="&#xe619;" 
d="M472 144l-399 400q-17 16 -17 39.5t16.5 40t40 16.5t40.5 -16l359 -360l359 360q17 16 40.5 16t40 -16.5t16.5 -40t-17 -39.5l-399 -400q-17 -16 -40 -16t-40 16z" />
    <glyph glyph-name="qita" unicode="&#xe628;" 
d="M215 384zM127 384q0 36 25.5 61.5t62 25.5t62 -25.5t25.5 -61.5t-25.5 -61.5t-62 -25.5t-62 25.5t-25.5 61.5zM809 384zM722 384q0 36 25.5 61.5t62 25.5t62 -25.5t25.5 -61.5t-25.5 -61.5t-62 -25.5t-62 25.5t-25.5 61.5zM512 384zM425 384q0 36 25.5 61.5t61.5 25.5
t61.5 -25.5t25.5 -61.5t-25.5 -61.5t-61.5 -25.5t-61.5 25.5t-25.5 61.5z" />
    <glyph glyph-name="xiaoxi003" unicode="&#xe62c;" 
d="M823 757h-622q-51 0 -87.5 -36.5t-36.5 -87.5v-373q0 -52 36.5 -88.5t87.5 -36.5h124v-63q0 -38 34 -55q13 -6 27 -6q21 0 37 13l145 111h255q51 0 87.5 36.5t36.5 88.5v373q0 51 -36.5 87.5t-87.5 36.5zM885 260q0 -26 -18 -44t-44 -18h-265q-11 0 -19 -7l-152 -119v95
q0 12 -9 21.5t-22 9.5h-155q-26 0 -44 18t-18 44v373q0 25 18 43.5t44 18.5h622q26 0 44 -18.5t18 -43.5v-373zM325.5 508q-25.5 0 -44 -18t-18.5 -44t18.5 -44t44 -18t44 18t18.5 44t-18.5 44t-44 18zM512 508q-26 0 -44 -18t-18 -44t18 -44t44 -18t44 18t18 44t-18 44
t-44 18zM698.5 508q-25.5 0 -44 -18t-18.5 -44t18.5 -44t44 -18t44 18t18.5 44t-18.5 44t-44 18z" />
    <glyph glyph-name="no" unicode="&#xe62e;" 
d="M894 690l-78 78l-306 -307l-307 307l-78 -78l307 -306l-307 -307l78 -78l307 307l306 -307l78 78l-307 307z" />
    <glyph glyph-name="ok" unicode="&#xe62f;" 
d="M347 212l-211 210l-72 -71l283 -282l606 606l-71 71z" />
    <glyph glyph-name="angledoubledown" unicode="&#xe637;" 
d="M797 402.5q0 -7.5 -6 -13.5l-266 -266q-6 -6 -13 -6t-13 6l-266 266q-6 6 -6 13.5t6 12.5l28 29q6 6 13.5 6t12.5 -6l225 -225l225 225q5 6 12.5 6t13.5 -6l28 -29q6 -5 6 -12.5zM797 621.5q0 -7.5 -6 -12.5l-266 -267q-6 -5 -13 -5t-13 5l-266 267q-6 5 -6 12.5t6 13.5
l28 28q6 6 13.5 6t12.5 -6l225 -224l225 224q5 6 12.5 6t13.5 -6l28 -28q6 -6 6 -13.5z" />
    <glyph glyph-name="angledoubleleft" unicode="&#xe638;" 
d="M578 109.5q0 -7.5 -6 -12.5l-29 -29q-5 -6 -12.5 -6t-13.5 6l-266 266q-6 6 -6 13.5t6 13.5l266 266q6 6 13.5 6t12.5 -6l29 -29q6 -5 6 -12.5t-6 -13.5l-225 -225l225 -224q6 -6 6 -13.5zM797 109.5q0 -7.5 -6 -12.5l-28 -29q-6 -6 -13.5 -6t-12.5 6l-267 266
q-5 6 -5 13.5t5 13.5l267 266q5 6 12.5 6t13.5 -6l28 -29q6 -5 6 -12.5t-6 -13.5l-224 -225l224 -224q6 -6 6 -13.5z" />
    <glyph glyph-name="angledoubleright" unicode="&#xe639;" 
d="M559 347.5q0 -7.5 -5 -13.5l-267 -266q-5 -6 -12.5 -6t-13.5 6l-28 29q-6 5 -6 12.5t6 13.5l224 224l-224 225q-6 6 -6 13.5t6 12.5l28 29q6 6 13.5 6t12.5 -6l267 -266q5 -6 5 -13.5zM779 347.5q0 -7.5 -6 -13.5l-266 -266q-6 -6 -13.5 -6t-12.5 6l-29 29q-6 5 -6 12.5
t6 13.5l225 224l-225 225q-6 6 -6 13.5t6 12.5l29 29q5 6 12.5 6t13.5 -6l266 -266q6 -6 6 -13.5z" />
    <glyph glyph-name="angledoubleup" unicode="&#xe63a;" 
d="M797 146.5q0 -7.5 -6 -13.5l-28 -28q-6 -6 -13.5 -6t-12.5 6l-225 224l-225 -224q-5 -6 -12.5 -6t-13.5 6l-28 28q-6 6 -6 13.5t6 12.5l266 267q6 5 13 5t13 -5l266 -267q6 -5 6 -12.5zM797 365.5q0 -7.5 -6 -12.5l-28 -29q-6 -6 -13.5 -6t-12.5 6l-225 225l-225 -225
q-5 -6 -12.5 -6t-13.5 6l-28 29q-6 5 -6 12.5t6 13.5l266 266q6 6 13 6t13 -6l266 -266q6 -6 6 -13.5z" />
    <glyph glyph-name="telepphone" unicode="&#xe60e;" 
d="M791 483q-30 9 -46 25t-20 30t-13 28.5t-26 21.5q-40 16 -83.5 24.5t-67.5 9.5h-24q-9 1 -26 0t-63 -10t-86 -24q-17 -7 -26 -21.5t-12.5 -28.5t-20 -30t-45.5 -25q-65 -22 -103 1t-37 68q1 29 18.5 57.5t51.5 47.5q53 31 140 48.5t148 19.5l61 2q10 0 26 -0.5t62 -4
t87.5 -10.5t91 -21t83 -33.5t51 -47.5t18.5 -57q1 -46 -36.5 -69t-102.5 -1v0zM371 518h70v-35h140v35h70v-35l209 -245v-139q0 -29 -20.5 -49.5t-48.5 -20.5h-559q-29 0 -49.5 20.5t-20.5 49.5v139l209 245v35zM511 99q58 0 99 40.5t41 98.5t-41 99t-99 41t-99 -41t-41 -99
t41 -98.5t99 -40.5v0zM511 308q29 0 49.5 -20.5t20.5 -49.5t-20.5 -49.5t-49.5 -20.5t-49.5 20.5t-20.5 49.5t20.5 49.5t49.5 20.5v0zM511 308z" />
    <glyph glyph-name="weixin" unicode="&#xe627;" horiz-adv-x="1449" 
d="M710 540q21 0 34.5 13.5t13.5 35t-13 34.5t-35 13q-23 0 -40.5 -13.5t-17.5 -34t17.5 -34.5t40.5 -14v0v0zM710 540zM441 636q-22 0 -40 -13.5t-18 -34t18 -34.5t40 -14t35 13.5t13 35.5q0 21 -13 34t-35 13v0v0zM441 636zM1283 234q0 113 -91.5 198.5t-221.5 95.5v6
q-26 121 -141.5 201.5t-262.5 80.5q-109 0 -201 -45.5t-146 -125t-54 -172.5q0 -154 150 -265l-34 -103q-3 -12 6 -19q4 -5 11 -5q3 0 8 2l129 65l15 -3q73 -15 116 -15q13 0 37 2q8 1 13 6q34 -88 123.5 -143.5t200.5 -55.5q43 0 112 18l99 -55q3 -2 8 -2t12 4q8 7 6 19
l-26 84q64 50 98 108.5t34 118.5v0v0zM600 166q-22 -1 -34 -1q-36 0 -108 14l-22 5q-5 1 -11 -2l-97 -48l25 75q4 13 -7 20q-145 102 -145 244q0 84 49 155t133 112.5t183 41.5q134 0 239 -72.5t130 -180.5q-93 -1 -170.5 -40.5t-122.5 -107t-45 -147.5q0 -32 9 -68h-6v0v0z
M1121 28q-10 -8 -6 -19l16 -55l-68 37q-3 2 -8 2q-3 0 -4 -1q-76 -19 -111 -19q-128 0 -218.5 76.5t-90.5 184.5t90.5 184t218.5 76q82 0 153 -35t112.5 -95t41.5 -130q1 -53 -32 -107t-94 -99v0v0zM1121 28zM834 359q-14 0 -26 -12.5t-12 -26.5t12 -26t26 -12
q21 0 34.5 11.5t13.5 26.5t-13.5 27t-34.5 12v0v0zM834 359zM1045 359q-14 0 -26 -12.5t-12 -26.5t11.5 -26t26.5 -12q20 0 34 11.5t14 26.5t-13.5 27t-34.5 12v0v0zM1045 359z" />
    <glyph glyph-name="weibo3" unicode="&#xe629;" 
d="M466 392q-77 -4 -130 -40t-53 -87q0 -50 53.5 -83t129.5 -30q75 4 129 44t54 91q0 50 -53 79t-130 26zM534 222q-24 -32 -64.5 -41t-86.5 14q-13 7 -19.5 18t-7.5 19v8q1 1 -1 10t3 24.5t12 30t27 27t48 15.5q36 4 61 -9t34 -34t7.5 -44t-13.5 -38zM418 273
q-14 -2 -23 -12t-9 -23q0 -12 10 -19t24 -5.5t24 11t10 21.5q0 13 -10 20.5t-26 6.5zM466 286q-11 -8 -4 -20q6 -10 18 -1q11 9 5 19q-6 11 -19 2zM512 896q-103 0 -197.5 -40t-162.5 -108.5t-108 -162.5t-40 -197t40 -197.5t108 -162.5t162.5 -108t197.5 -40t197.5 40
t162.5 108t108 162.5t40 197.5t-40 197t-108 162.5t-162.5 108.5t-197.5 40zM739 243q-30 -63 -114 -96.5t-167 -27.5q-41 3 -76.5 11.5t-71 25.5t-58.5 47.5t-28 72.5q-1 6 -0.5 16.5t11.5 42.5t34 63q3 4 8.5 11t23 26.5t35 36t43.5 33.5t50 25q24 9 42.5 9t28.5 -5
t16 -15t7.5 -19t1.5 -19q-6 -20 -4 -28.5t23 -1.5q4 2 9.5 4.5t22 7t31 6.5t31 -1t26.5 -12q12 -13 13.5 -29.5t-4.5 -27.5l-5 -10q0 -1 -0.5 -2t-1.5 -3.5t0 -4.5t4.5 -4.5t10.5 -3.5q8 -2 19 -6.5t23.5 -15t20 -24.5t7.5 -35.5t-12 -46.5zM655 487q-7 0 -11.5 5t-4.5 12
t4.5 11.5t11.5 4.5q5 1 11.5 1.5t24 -2t30 -10.5t21 -29t5.5 -52v-2q-3 -14 -17 -14q-7 0 -12 5t-5 12q1 0 1.5 7.5t0 17.5t-6.5 19.5t-18 13.5t-35 0zM831 398v0q-2 -13 -7.5 -17t-16 -4t-17.5 6t-7 16q0 5 1.5 11t2.5 9l1 4q11 38 -7 80q-17 28 -45.5 43t-48.5 17t-26 -1
l-22 -5q-10 0 -17.5 7t-7.5 17q0 19 18 24h0.5t1 0.5t1.5 0.5q48 9 83 1q27 -6 50.5 -20.5t45 -40.5t25.5 -62t-8 -86z" />
    <glyph glyph-name="xiazai3" unicode="&#xe620;" horiz-adv-x="1042" 
d="M1020 193q-5 -78 -65.5 -131.5t-143.5 -53.5l-177 -2l-386 5q-97 0 -169 64.5t-75 155.5q-4 84 48.5 150t136.5 84q4 62 32 118.5t76 98.5q52 44 117 64.5t135 13.5q106 -11 185.5 -82t97.5 -173q10 -54 3 -102q78 -6 130 -62q61 -63 55 -148v0v0v0zM937 316
q-50 51 -121 51h-4q-9 0 -15 6q-6 8 -4 16q12 58 1 109q-16 90 -86 152.5t-164 73.5q-126 13 -221 -70q-45 -39 -70.5 -92.5t-25.5 -112.5q0 -7 -4.5 -12.5t-11.5 -6.5q-75 -10 -123.5 -67t-45.5 -131q3 -76 64 -131t143 -55l283 1h2h95v-1h182q68 0 117.5 43.5t53.5 106.5
q4 71 -45 120v0v0v0zM513 148q-5 -5 -13.5 -5t-13.5 5l-152 148q-14 13 -0.5 26t27.5 0l116 -115v220v80h42q-1 -6 -1 -20t0.5 -33.5t0.5 -20.5v-225l117 115q5 5 14 5q8 0 14 -6q14 -13 0 -26l-151 -148v0v0v0zM513 148zM634 1v0l-387 4q-98 0 -171.5 66.5t-76.5 159.5
q-4 84 48 151.5t137 86.5q4 62 32 117q29 57 78 100q46 39 102 60t117 21q18 0 36 -2q108 -11 189 -83q39 -35 64 -80q26 -45 35 -97q10 -51 4 -97q77 -8 128 -63q30 -32 44.5 -71t11.5 -82q-5 -79 -67 -134t-147 -55zM513 756q-121 0 -212 -78q-99 -85 -107 -213v-4l-4 -1
q-83 -18 -134 -82.5t-47 -146.5q4 -89 74 -152t165 -63l386 -4l177 1q81 0 140 52t64 128q6 83 -54 145v0q-50 54 -126 60h-6l1 6q7 47 -3 100q-18 100 -95.5 170t-183.5 81q-18 1 -35 1zM811 41h-183v0h-96h-283q-84 0 -146.5 56.5t-65.5 134.5q-3 76 46.5 134.5
t126.5 68.5q12 2 12 14q0 59 25.5 114t72.5 95q83 73 192 73q16 0 32 -2q96 -11 167 -74q72 -64 88 -156q11 -52 -1 -111q-2 -6 2 -11q5 -5 12 -5h4q73 0 125 -52q50 -51 46 -124q-4 -65 -55 -110t-121 -45zM630 52h181q66 0 114 42t52 103q4 68 -44 116q-48 49 -117 49h-4
q-11 0 -19 8v0v0q-8 9 -5 20q12 57 1 107v0q-16 88 -84.5 150t-161.5 72q-15 1 -31 1q-105 0 -186 -69q-45 -39 -69.5 -92t-24.5 -110q0 -9 -6 -16t-15 -8q-73 -10 -120 -65t-44 -128q3 -74 62 -127t140 -53h285h95h1zM499.5 138q-10.5 0 -17.5 7l-152 147q-7 7 -7 16.5
t7 16.5t17 7t17 -7l108 -106v208v8v73l1 4h51v-6q-1 -4 0 -62v-11v-213l109 107q6 6 17 6q10 0 18 -8q7 -7 7 -16.5t-7 -16.5l-152 -147q-6 -7 -16.5 -7zM347.5 322q-5.5 0 -10 -4t-4.5 -9.5t4 -9.5l152 -147q5 -4 11 -4q5 0 9 4v0l152 147q4 4 4 9.5t-4 9.5q-5 5 -11 5
t-10 -4l-126 -123v237v11q-1 46 -1 58h-31q0 -14 1 -67v-8v-232l-126 123q-4 4 -9.5 4z" />
    <glyph glyph-name="gonggao1" unicode="&#xe667;" horiz-adv-x="1025" 
d="M602 -128q-11 0 -20 8l-292 263h-170q-19 0 -39 6.5t-38.5 20t-30.5 38t-12 56.5v180q0 20 6.5 40t20 38.5t38 30.5t55.5 12h170l292 263q15 13 32.5 5t17.5 -27v-904q0 -20 -17 -27q-6 -3 -13 -3zM120 504q-19 0 -32.5 -7.5t-19 -19t-7 -19t-1.5 -14.5v-180
q0 -20 7.5 -33.5t19.5 -18.5t19.5 -7t13.5 -2h181q12 0 20 -7l251 -226v768l-251 -226q-8 -8 -20 -8h-181zM753 535q-12 0 -21 8.5t-9 21t9 21.5l120 120q9 9 21.5 9t21 -8.5t8.5 -21t-8 -21.5l-121 -121q-9 -8 -21 -8zM934 324h-181q-12 0 -21 8.5t-9 21t9 21.5t21 9h181
q12 0 21 -9t9 -21.5t-9 -21t-21 -8.5zM873.5 -8q-12.5 0 -21.5 9l-120 121q-9 9 -9 21.5t8.5 21t21 8.5t21.5 -9l121 -120q8 -9 8 -21.5t-8.5 -21.5t-21 -9z" />
    <glyph glyph-name="danqia" unicode="&#xe66a;" 
d="M558 221h259q6 0 10 4t4 9.5t-4 10t-10 4.5h-259q-6 0 -10 -4t-4 -10t4 -10t10 -4zM920 724h-810q-37 0 -62.5 -22t-25.5 -58v-513q0 -36 26 -61.5t62 -25.5h804q36 0 62 25.5t26 61.5v513q0 36 -23 58t-59 22zM952 111q0 -7 -12 -12.5t-20 -5.5h-829q-8 0 -13.5 5.5
t-5.5 12.5v314h880v-314zM952 542h-880v115q0 7 9.5 12.5t17.5 5.5h834q8 0 13.5 -5.5t5.5 -12.5v-115z" />
    <glyph glyph-name="yonghu2" unicode="&#xe63d;" 
d="M920 -22q0 2 -2 10q-14 108 -80 194.5t-164 128.5q58 40 91.5 102t33.5 135q0 119 -84 203t-203 84t-203 -84t-84 -203q0 -73 33.5 -135t91.5 -102q-96 -42 -161.5 -126t-80.5 -190q-4 -9 -4 -17v-4q0 -17 12 -29t29 -12t29 12t12 29v0h1q15 120 104 202t211 85h4.5h5.5
h5.5h4.5q122 -3 211.5 -85t103.5 -202h1v0q0 -17 12 -29t29 -12t29 12t12 29v4zM512 343q-85 0 -145 60t-60 145t60 145t145 60t145 -60t60 -145t-60 -145t-145 -60z" />
    <glyph glyph-name="weibiaoti560" unicode="&#xe652;" 
d="M775 458h-46v81q0 82 -58 140t-140 58h-33q-82 0 -140 -58t-58 -140v-81h-46q-22 0 -37.5 -15.5t-15.5 -37.5v-317q0 -22 15.5 -37.5t37.5 -15.5h521q22 0 37.5 15.5t15.5 37.5v317q0 22 -15.5 37.5t-37.5 15.5zM375 539q0 51 36 87t87 36h33q51 0 87 -36t36 -87v-81
h-279v81z" />
    <glyph glyph-name="qq2" unicode="&#xe62a;" 
d="M512 895q-104 0 -199 -40.5t-163 -108.5t-108.5 -163t-40.5 -199t40.5 -199t108.5 -163t163 -108.5t199 -40.5t199 40.5t163 108.5t108.5 163t40.5 199t-40.5 199t-108.5 163t-163 108.5t-199 40.5zM512 -108q-100 0 -191 39t-157 105t-105 157t-39 191t39 191t105 157
t157 105t191 39t191 -39t157 -105t105 -157t39 -191t-39 -191t-105 -157t-157 -105t-191 -39zM511 661q90 0 154 -78q63 -77 66 -186l1 -5l2 -4q12 -24 16 -30q18 -38 22 -72t-6 -44l-3 -2v0q-3 -2 -7 -2q-3 0 -7 1q-8 4 -15 11l-19 18l-12 -23q-3 -6 -5 -9l-4 -8l-4 -8
l-9 -17l17 -9q9 -4 16 -11q12 -12 12 -23q0 -21 -34 -37q-35 -16 -84 -16q-28 0 -53 6q-20 5 -34 12l-9 4l-9 -4q-12 -7 -34 -12q-26 -6 -53 -6q-49 0 -84 16q-34 15 -34 37q0 11 11 22q8 7 18 13l17 10l-11 17q-3 4 -7 14l-5 9l-11 23l-19 -17q-8 -7 -16 -11q-4 -2 -7 -2
t-5 1q-2 2 -4 3q-11 11 -7 45t22 73q9 17 15 26l3 5l1 6q3 110 66 186q26 31 68 54.5t84 23.5zM511 680q-46 0 -92 -25.5t-74 -59.5q-68 -81 -72 -198q-6 -8 -16 -29q-20 -41 -24 -79q-6 -44 13 -61q0 -1 1.5 -1.5t1.5 -1.5q9 -6 19 -6q7 0 14 3q12 6 22 15l5 -10
q4 -9 8 -16q-11 -7 -20 -15q-18 -17 -18 -36q0 -35 45 -55q39 -17 92 -17q30 0 58 6q24 6 39 14q16 -9 38 -14q27 -6 57 -6q54 0 92 17q45 22 45 55q0 19 -17 36q-9 9 -21 15q1 3 4 8t4 8q2 3 5 9q10 -10 22 -15q7 -3 14 -3q11 0 19 6q0 1 1.5 1.5t1.5 1.5q19 17 13 61
q-4 38 -24 79l-16 30q-4 116 -71 198q-70 85 -169 85v0z" />
    <glyph glyph-name="qq3" unicode="&#xe62b;" 
d="M512 896q-104 0 -199 -40.5t-163.5 -109t-109 -163.5t-40.5 -199t40.5 -199t109 -163.5t163.5 -109t199 -40.5t199 40.5t163.5 109t109 163.5t40.5 199t-40.5 199t-109 163.5t-163.5 109t-199 40.5zM794 224q-10 -8 -25.5 0.5t-32.5 31.5q-14 -38 -36 -71q51 -18 51 -47
q0 -25 -39 -43t-94 -18q-66 0 -106 24q-39 -24 -106 -24q-55 0 -93.5 18t-38.5 43q0 29 50 47q-21 32 -36 71q-16 -23 -31.5 -31.5t-25.5 -0.5q-14 13 -9.5 52.5t24.5 81.5q9 20 20 35q3 124 74.5 211t171.5 87v0q101 0 172.5 -87t74.5 -211q10 -15 19 -35
q20 -42 24.5 -81.5t-8.5 -52.5z" />
    <glyph glyph-name="mima" unicode="&#xe653;" 
d="M754 496v25q0 101 -71.5 173t-174.5 72q-100 0 -172.5 -71.5t-72.5 -173.5q0 -18 4 -25q-27 -6 -44 -27.5t-17 -48.5v-364q0 -32 22.5 -54t52.5 -22h455q31 0 53 23t22 53v364q6 26 -12 48t-45 28zM512 716q81 0 138 -57t57 -138v-25h-386v25q-3 79 53.5 137t137.5 58z
M768 56q0 -11 -7 -18t-18 -7h-458q-11 0 -18 7t-7 18v364q0 11 7 18t18 7h454q11 0 18 -7t7 -18v-364h4z" />
    <glyph glyph-name="wenzhang1" unicode="&#xe659;" 
d="M320 32v864h480v-192v-32h224v-640h-704zM928 576h-512v-32h512v32zM928 448h-512v-32h512v32zM928 320h-512v-32h512v32zM928 192h-512v-32h512v32zM832 896h19l173 -160v-32h-192v192zM288 0h320h96v-128h-704v864h288v-320h-192v-32h192v-96h-192v-32h192v-96h-192
v-32h192v-96h-192v-32h192z" />
    <glyph glyph-name="jinrongicon" unicode="&#xe654;" 
d="M837 268q-19 52 -62 114.5t-73 96.5t-51 54v0l-1 1q-4 4 -10 9l-7 7q12 -10 28 -10q27 0 39 25q93 -19 102 -58q4 -14 19 -14h4q8 2 12 9t2 14q-13 55 -101 79q34 32 37 55q1 7 -3.5 13t-12 7.5t-14 -3t-8.5 -12.5q-1 -7 -14.5 -22t-25.5 -23q-13 19 -36 19
q-20 0 -33 -15q5 8 12 14q1 1 10 8q6 5 22.5 18t23.5 18.5t19.5 16t18 17t11.5 15t8 15.5q3 9 6 17q8 21 -7 29q-6 6 -16 6q-6 0 -21 -5q-31 -10 -45 -4q-10 4 -31 19q-41 30 -72 32q-25 2 -63 -15q-33 -14 -55 -14v0q-21 0 -64 6q-35 5 -48 5q-9 0 -13 -1q-3 2 -9 11
q-8 12 -18 12q-9 0 -14 -7q-4 -6 -3.5 -11.5t7.5 -31.5l1 -5q1 -1 2 -6q9 -55 32 -80q4 -5 10 -13q37 -46 48 -74q-2 -1 -7.5 -2t-8.5 -1q-7 -2 -10.5 -8t-2 -13.5t7.5 -11.5t13 -2q3 1 8 2t6 1q0 -15 -6 -28q-4 -6 -8 -9q-129 -110 -187 -266q-38 -103 -37 -166
q0 -14 0.5 -22.5t4.5 -27t11.5 -31.5t22.5 -29t36 -26t54.5 -17.5t75.5 -7.5q163 -3 316 -1q42 1 75.5 8t54.5 17t36 26.5t22.5 29t11.5 31t4.5 27.5t0.5 23q1 63 -37 166zM359 695q-7 8 -10 13q-15 17 -24 67q2 0 4 1q3 1 8 1q11 0 44 -5q44 -6 67 -6h3q27 0 66 16
q31 14 48 12q21 -1 54 -25q23 -17 37 -23q26 -11 64 2v-1q-3 -10 -18.5 -24t-55.5 -45l-18 -15q-9 -6 -11 -8q-20 -18 -28 -37q-78 12 -174 -3q-5 16 -13.5 29t-24 30.5t-18.5 20.5zM624 560q-4 5 -6 12h1q2 -7 5 -12zM839 103q0 -13 -0.5 -21t-4 -22.5t-9.5 -23.5
t-18.5 -21t-30 -19t-45 -12t-62.5 -5q-154 -2 -316 0q-35 1 -62.5 6t-45 12t-30 18.5t-18.5 21t-9.5 24t-4 22t-0.5 20.5q-1 56 35 152q54 147 176 252q8 7 15 17l2 2q11 25 11 51q89 14 161 3v-2v-2q1 -27 24 -49q6 -6 8 -9l2 -2q6 -5 10 -8q15 -15 43.5 -46.5t72 -94
t61.5 -112.5q36 -96 35 -152zM520 272v98q35 -7 58 -33l22 27q-32 34 -80 40v42h-20v0h-17v-40q-40 -3 -65 -26t-25 -57q0 -20 7 -34.5t22 -23.5t27.5 -14t33.5 -11v-109q-46 5 -77 42l-22 -29q37 -43 99 -47v-40h30v0h7v41q44 5 65.5 29.5t21.5 57.5q0 37 -23.5 56
t-63.5 31zM483 281q-25 7 -38.5 17t-13.5 27q0 20 14.5 33t37.5 14v-91zM520 132v99q23 -8 35.5 -19t12.5 -30q0 -17 -11.5 -31.5t-36.5 -18.5z" />
    <glyph glyph-name="jiazai2" unicode="&#xe663;" 
d="M782 -6q8 -13 4 -29t-18 -24t-29.5 -4t-23.5 18q-9 14 -5 30t18 24q15 8 30.5 3.5t23.5 -18.5v0v0zM552 -89v0q0 -16 -12 -27.5t-28 -11.5t-27.5 11.5t-11.5 27.5v28q0 16 11.5 27.5t27.5 11.5t28 -11.5t12 -27.5v-28v0v0zM310 -45v0q-8 -14 -24 -18t-30 4t-18.5 23.5
t4.5 29.5l29 51q8 14 24 18.5t30 -3.5t18 -24t-4 -30l-29 -51v0v0zM123 114v0q-14 -8 -30 -4t-24 18t-4 30t18 24l78 45q14 8 30 4t24 -18t4 -30t-19 -24l-77 -45v0v0zM39 345v0q-16 0 -27.5 11.5t-11.5 27.5t11.5 27.5t27.5 11.5h122q17 0 28.5 -11.5t11.5 -27.5
t-11.5 -27.5t-28.5 -11.5h-122v0v0zM83 586v0q-14 8 -18 24t4 30t24 18.5t30 -4.5l132 -76q14 -8 18.5 -24t-3.5 -30q-9 -14 -24.5 -18t-29.5 4l-133 76v0v0zM242 774v0l92 -160q9 -14 24.5 -18.5t29.5 3.5t18 24t-4 30l-93 160q-8 14 -23.5 18t-29.5 -4t-18 -23.5t4 -29.5
v0v0zM473 857v0q0 15 11.5 27t27.5 12t27.5 -11.5t11.5 -27.5v-185q0 -16 -11.5 -27.5t-27.5 -12.5q-16 0 -27.5 11.5t-11.5 28.5v185v0v0zM714 813v0q9 14 24.5 18t29.5 -4t18.5 -23.5t-4.5 -29.5l-92 -160q-8 -14 -24 -18.5t-30 3.5t-18 24t4 30l92 160v0v0zM902 654v0
l-160 -92q-14 -8 -18.5 -24t3.5 -30t24 -18t30 4l160 92q14 9 18 24.5t-4 29.5t-23.5 18.5t-29.5 -4.5v0v0zM984 423v0q17 0 28.5 -11.5t11.5 -27.5t-11.5 -27.5t-28.5 -11.5h-184q-16 0 -27.5 11.5t-11.5 27.5t11.5 27.5t27.5 11.5h184v0v0z" />
    <glyph glyph-name="jiantou-copy2" unicode="&#xe68a;" 
d="M294 -128q-30 0 -51.5 21.5t-21.5 51.5t21 52l387 387l-387 387q-21 22 -21 52t21.5 51.5t51.5 21.5t52 -21l439 -439q21 -22 21 -52t-21 -52l-439 -439q-22 -21 -52 -21z" />
    <glyph glyph-name="dashuju" unicode="&#xe64a;" 
d="M529 409l358 154q-49 103 -145 167t-213 69v-390zM495 379v420q-109 -4 -200.5 -60.5t-144.5 -150.5t-53 -204q0 -113 55.5 -208.5t151 -151t208.5 -55.5q119 0 219 63l1 -1l12 9v0l3 2zM927 384q0 77 -27 149l-363 -157l236 -314q72 58 113 142t41 180v0z" />
    <glyph glyph-name="jiantou-copy-copy-copy" unicode="&#xe68b;" 
d="M239 442q295 285 451 435q17 17 38.5 19t38 -10t27 -29t8 -38.5t-20.5 -38.5q-44 -43 -184 -178.5t-216 -209.5q45 -44 185.5 -184t216.5 -217q18 -17 20.5 -39t-8.5 -39t-27 -28.5t-37.5 -9.5t-39.5 19q-146 146 -452 450q-19 19 -19 49t19 49z" />
    <glyph glyph-name="anzhuosvg" unicode="&#xe66e;" 
d="M815.5 120q-5.5 0 -9.5 4t-4 10v369q0 5 4 9t9.5 4t9 -4t3.5 -9v-369q0 -6 -3.5 -10t-9 -4zM696 67h-92v-118q0 -5 -3.5 -9t-9 -4t-9.5 4t-4 9v118h-132v-118q0 -5 -4 -9t-9.5 -4t-9 4t-3.5 9v118h-92q-28 0 -47 19.5t-19 46.5v382h500v-382q0 -27 -19 -46.5t-47 -19.5z
M736 489h-448v-356q0 -16 11.5 -27.5t28.5 -11.5h103h1h0.5h1.5h1h154h1h1h1h1h104q16 0 27.5 11.5t11.5 27.5v356v0zM749 542h-17h-440h-17h-10q-3 22 -3 40q0 103 73 176.5t177 73.5t177 -73.5t73 -176.5q0 -19 -3 -40h-10v0zM512 806q-93 0 -158.5 -66t-65.5 -158
q0 -3 1 -14h446q1 11 1 14q0 92 -65.5 158t-158.5 66zM208.5 120q-5.5 0 -9 4t-3.5 10v369q0 5 3.5 9t9 4t9.5 -4t4 -9v-369q0 -6 -4 -10t-9.5 -4z" />
    <glyph glyph-name="tushujiemiandjiazai" unicode="&#xe66b;" 
d="M450 835q92 0 175.5 -36t143.5 -96t96 -143.5t36 -175.5q0 -25 18 -43t43.5 -18t43.5 18t18 43q0 104 -40.5 199t-109 163.5t-163.5 109t-199 40.5q-102 0 -194.5 -38.5t-160.5 -103.5t-110 -155.5t-47 -191.5q6 118 67.5 216t163 155t219.5 57zM574 -67q-92 0 -175.5 36
t-143.5 96t-96 143.5t-36 175.5q0 25 -18 43t-43.5 18t-43.5 -18t-18 -43q0 -104 40.5 -199t109.5 -163.5t163.5 -109t198.5 -40.5q102 0 194.5 38.5t160.5 103.5t110 155.5t47 191.5q-6 -118 -67.5 -216t-163 -155t-219.5 -57z" />
    <glyph glyph-name="yonghu3" unicode="&#xe63e;" 
d="M512 308q92 0 163 72.5t81 185.5q6 80 -23.5 152t-88.5 116.5t-132 44.5t-132 -44.5t-88.5 -116.5t-23.5 -152q9 -113 80.5 -185.5t163.5 -72.5v0zM510 225q-133 0 -245 -32t-177.5 -87t-65.5 -120q0 -34 35.5 -50t128.5 -26q94 -10 326 -10q242 0 327 10
q93 11 127.5 26.5t34.5 49.5q0 64 -66 119.5t-179.5 87.5t-245.5 32v0z" />
    <glyph glyph-name="gonggao2" unicode="&#xe668;" 
d="M981 432h-196q-17 0 -29 -12t-12 -29v-13q0 -17 12 -29t29 -12h196q17 0 29 12t12 29v13q0 17 -12 29t-29 12zM525 785q-32 -26 -135 -90t-146 -95v0q-1 -1 -2 -3l-1 -2q-2 -1 -8 -6t-11.5 -8.5t-20.5 -6t-35 -2.5h-116q-48 0 -48 -46v-282q0 -48 48 -48h116
q21 0 35.5 -3t20 -6t11.5 -8t8 -6l1 -2.5t2 -2.5v0q47 -35 149.5 -101t131.5 -87q9 -7 21.5 -11t27 -3.5t24 16.5t9.5 46v712q0 31 -10 46t-24.5 15t-26.5 -4.5t-21 -11.5zM707 590q8 -14 21.5 -17t24.5 7l162 138q11 10 13.5 26.5t-5.5 30.5l-6 11q-8 14 -21.5 17t-24.5 -6
l-162 -139q-11 -9 -13.5 -26t5.5 -31zM915 50l-162 138q-11 10 -25 6.5t-21 -17.5l-6 -10q-8 -14 -5.5 -31t13.5 -26l162 -138q11 -10 24.5 -7t21.5 17l6 11q8 14 5.5 30.5t-13.5 26.5z" />
    <glyph glyph-name="anzhuo" unicode="&#xe66f;" 
d="M385 -66q-30 18 -28 59v115h-46q-21 0 -33 12.5t-12 32.5v406q0 1 1 8h490q1 -17 1 -18v-389q0 -28 -12.5 -40t-41.5 -12h-34v-67q0 -45 1 -48q3 -40 -29 -59h-53q-2 3 -7.5 7.5t-9 8t-5.5 7.5q-5 8 -5 27q-1 18 -1 122h-95q0 -104 1 -113q2 -41 -29 -59h-53zM674 831
q-4 -18 -5 -19q-4 -8 -37 -59q95 -55 125 -153h-492q30 99 127 155q-32 50 -36 57q-1 1 -6 19h11q6 -9 21 -33.5t23 -36.5q107 44 215 -2q5 9 20 34t23 38h11zM405 647q11 1 18.5 8.5t7.5 17.5q0 11 -8 19t-19 7q-12 0 -19 -8t-7 -19q1 -11 8.5 -18t18.5 -7zM640 677
q-1 11 -8 18.5t-18 7.5t-19 -8t-8 -19q0 -10 8 -17.5t18 -7.5q12 0 19.5 7.5t7.5 18.5zM122 518q20 37 74 28q15 -2 25 -14t10 -28v-248q0 -31 -32 -40q-50 -15 -77 28v274zM899 244q-18 -35 -65 -31q-44 4 -44 49v238q0 44 44 48q47 4 65 -30v-274z" />
    <glyph glyph-name="rongzijine" unicode="&#xe655;" 
d="M512 785q81 0 155 -32q72 -30 127.5 -85.5t85.5 -127.5q32 -74 32 -155.5t-32 -155.5q-30 -72 -85.5 -127.5t-127.5 -85.5q-74 -32 -155.5 -32t-155.5 32q-72 30 -127.5 85.5t-85.5 127.5q-32 74 -32 155.5t32 155.5q30 72 85.5 127.5t127.5 85.5q74 32 156 32v0z
M512 833q-92 0 -175 -35.5t-143 -95.5t-95.5 -143t-35.5 -174.5t35.5 -174.5t95.5 -143t143 -95.5t174.5 -35.5t174.5 35.5t143 95.5t95.5 143t35.5 174.5t-35.5 174.5t-95.5 143t-143 95.5t-174 35.5v0zM680 324h-144v52h144q10 0 17 7t7 17t-7 17t-17 7h-111l112 156
q5 9 2.5 18.5t-11.5 14.5t-18.5 2.5t-14.5 -11.5l-127 -179l-128 179q-5 9 -14.5 11.5t-18.5 -2.5t-11.5 -14.5t2.5 -18.5l112 -156h-111q-10 0 -17 -7t-7 -17t7 -17t17 -7h145v-52h-145q-10 0 -17 -7t-7 -17t7 -17t17 -7h145v-99q0 -10 7 -17t17 -7t17 7t7 17v99h144
q10 0 17 7t7 17t-7 17t-17 7v0z" />
    <glyph glyph-name="loading" unicode="&#xe66d;" 
d="M441 756.5q0 -29.5 21 -50t50 -20.5t50 20.5t21 50t-21 50t-50 20.5t-50 -20.5t-21 -50zM167 640q0 -28 20.5 -48.5t48.5 -20.5t48.5 20.5t20.5 48.5t-20.5 48.5t-48.5 20.5t-48.5 -20.5t-20.5 -48.5zM63 382v0q0 -26 18.5 -44t44 -18t44 18t18.5 44v0q0 26 -18.5 44.5
t-44 18.5t-44 -18.5t-18.5 -44.5zM174 100.5q0 -22.5 15.5 -38.5t38 -16t38.5 16t16 38.5t-16 38.5t-38.5 16t-38 -16t-15.5 -38.5zM467 -17v0q0 -19 14 -33t33.5 -14t33 14t13.5 33v0v0q0 20 -13.5 33.5t-33 13.5t-33.5 -13.5t-14 -33.5v0zM771 91v0q0 -14 10 -23.5
t24 -9.5t24 9.5t10 23.5v0v0q0 14 -10 24t-24 10t-24 -10t-10 -24v0zM912 383q0 -10 7 -17t16.5 -7t17 7t7.5 17v0q0 10 -7.5 17t-17 7t-16.5 -7t-7 -17v0zM840 635v0q0 -7 5 -12t12 -5t12 5t5 12v0v0q0 7 -5 12t-12 5t-12 -5t-5 -12v0z" />
    <glyph glyph-name="jinrongfuwu" unicode="&#xe656;" 
d="M723 854l-294 -368h287v-64h-318v-204h318v-69h-318v-277h-73v277h-312v69h312v204h-312v64h283l-293 368l55 42l305 -383l305 383z" />
    <glyph glyph-name="iconfontmoban" unicode="&#xe631;" 
d="M512 896q-104 0 -198.5 -40.5t-163 -109t-109 -163t-40.5 -198.5t40.5 -198.5t109 -163t163 -109t198.5 -40.5t198.5 40.5t163 109t109 163t40.5 198.5t-40.5 198.5t-109 163t-163 109t-198.5 40.5zM544 106q-13 -13 -32 -13t-32.5 13t-13.5 33q0 18 13.5 31.5t32.5 13.5
t32 -13.5t13 -31.5q0 -20 -13 -33zM557 588l-37 -335q-2 -4 -8 -4q-3 0 -5 1t-2 2l-1 1l-36 335q-3 22 -3 32q0 26 14 42t33.5 16t33 -16t13.5 -47q0 -10 -2 -27z" />
    <glyph glyph-name="buxianshi" unicode="&#xe67a;" 
d="M939 386l-54 65q43 52 70 116q5 12 0 23.5t-16.5 16.5t-23 0t-16.5 -16q-48 -115 -152.5 -182t-235.5 -67q-133 0 -237.5 67t-151.5 182q-5 12 -16.5 17t-23 0t-16.5 -16.5t0 -23.5q27 -66 75 -122l-51 -60q-9 -10 -7.5 -22.5t10.5 -20.5q9 -7 20 -7q14 0 23 11l47 56
q49 -44 111 -73l-29 -79q-5 -12 0.5 -23.5t17.5 -15.5q5 -2 10 -2q21 0 29 20l28 78q63 -21 130 -25v-92q0 -13 9 -21.5t21.5 -8.5t21.5 8.5t9 21.5v92q71 4 137 26l29 -79q7 -20 29 -20q5 0 10 2q12 4 17 15.5t1 23.5l-30 82q60 29 108 74l51 -60q9 -11 23 -11q11 0 19 7
q10 8 11 20.5t-7 22.5v0z" />
    <glyph glyph-name="pingguo" unicode="&#xe670;" 
d="M365 -110h-4q-46 1 -90.5 40.5t-76 94t-54.5 119.5q-79 221 49 362q64 70 158 70q44 0 76 -13l74 -24l102 33q36 9 68 9q34 0 65.5 -10t50.5 -22.5t35.5 -28.5t21.5 -23.5t8 -11.5l13 -21l-24 -8q-3 -2 -9 -5t-19.5 -14t-24 -25.5t-19 -41t-9.5 -58.5t9.5 -59.5t24.5 -44
t31.5 -29.5t25.5 -16.5t13 -5.5l18 -7l-5 -18q-5 -15 -14 -36.5t-37.5 -71.5t-62.5 -84q-47 -48 -99 -48q-26 0 -61 13q-41 14 -78 21q-43 -1 -84 -19q-39 -17 -72 -17v0zM347 536q-76 0 -128 -57q-112 -123 -41 -321q33 -93 83.5 -160t100.5 -68h3q24 0 56 14q49 21 101 21
h5q34 -4 85 -23q29 -10 48 -10q35 0 71 36q58 59 97 160q-17 9 -33.5 22t-36.5 35.5t-31.5 55.5t-10.5 72q3 117 85 169q-53 59 -134 59q-28 0 -57 -7l-113 -37l-87 29q-29 10 -63 10zM474 612l-1 19q-1 3 -1 8t1 19.5t4 29t10.5 34t18 37t29 36t41.5 33t56.5 25.5t74.5 16
l20 2l2 -21q-1 -3 0 -11.5t-2 -26t-7 -36t-16 -42t-28 -42.5q-62 -71 -182 -79zM688 825q-42 -7 -74.5 -23.5t-50.5 -34.5t-29.5 -41t-15.5 -39t-5 -32q87 11 132 63q38 43 43 107z" />
    </font>
</defs>
</svg>
